<svg width="386" height="562" viewBox="0 0 386 562" fill="none" xmlns="http://www.w3.org/2000/svg">
<mask id="path-1-inside-1_1_1602" fill="white">
<path fill-rule="evenodd" clip-rule="evenodd" d="M385.981 174.672V162.727H386V155.914C386 104.648 347.29 88.1337 300.401 68.1297C264.869 52.9706 224.64 35.8078 193 0C161.36 35.8078 121.131 52.9706 85.5989 68.1297C38.71 88.1337 0 104.648 0 155.914V162.727H0.0182838V379.011C0.0183436 379.011 0.0184034 379.011 0.0184631 379.011V550C0.0184631 556.627 5.39105 562 12.0185 562H373.981C380.609 562 385.981 556.627 385.981 550V174.727C385.981 174.709 385.981 174.691 385.981 174.672Z"/>
</mask>
<path fill-rule="evenodd" clip-rule="evenodd" d="M385.981 174.672V162.727H386V155.914C386 104.648 347.29 88.1337 300.401 68.1297C264.869 52.9706 224.64 35.8078 193 0C161.36 35.8078 121.131 52.9706 85.5989 68.1297C38.71 88.1337 0 104.648 0 155.914V162.727H0.0182838V379.011C0.0183436 379.011 0.0184034 379.011 0.0184631 379.011V550C0.0184631 556.627 5.39105 562 12.0185 562H373.981C380.609 562 385.981 556.627 385.981 550V174.727C385.981 174.709 385.981 174.691 385.981 174.672Z" fill="url(#paint0_linear_1_1602)"/>
<path d="M385.981 162.727V161.227H384.481V162.727H385.981ZM385.981 174.672H384.481L384.481 174.68L385.981 174.672ZM386 162.727V164.227H387.5V162.727H386ZM300.401 68.1297L300.99 66.75L300.401 68.1297ZM193 0L194.124 -0.993218L193 -2.26536L191.876 -0.993218L193 0ZM85.5989 68.1297L85.0103 66.75L85.5989 68.1297ZM0 162.727H-1.5V164.227H0V162.727ZM0.0182838 162.727H1.51828V161.227H0.0182838V162.727ZM0.0182838 379.011H-1.48172V380.511H0.0182838V379.011ZM0.0184631 379.011H1.51846V377.511H0.0184631V379.011ZM384.481 162.727V174.672H387.481V162.727H384.481ZM386 161.227H385.981V164.227H386V161.227ZM384.5 155.914V162.727H387.5V155.914H384.5ZM299.812 69.5093C323.319 79.5376 344.487 88.5831 359.82 101.448C375.039 114.217 384.5 130.751 384.5 155.914H387.5C387.5 129.812 377.606 112.455 361.748 99.1497C346.004 85.9397 324.373 76.7257 300.99 66.75L299.812 69.5093ZM191.876 0.993218C223.77 37.0885 264.309 54.3625 299.812 69.5093L300.99 66.75C265.429 51.5788 225.51 34.5271 194.124 -0.993218L191.876 0.993218ZM86.1875 69.5093C121.691 54.3625 162.23 37.0885 194.124 0.993218L191.876 -0.993218C160.49 34.5271 120.571 51.5788 85.0103 66.75L86.1875 69.5093ZM1.5 155.914C1.5 130.751 10.961 114.217 26.1802 101.448C41.5132 88.5831 62.6815 79.5377 86.1875 69.5093L85.0103 66.75C61.6274 76.7257 39.9963 85.9397 24.252 99.1497C8.39403 112.455 -1.5 129.812 -1.5 155.914H1.5ZM1.5 162.727V155.914H-1.5V162.727H1.5ZM0.0182838 161.227H0V164.227H0.0182838V161.227ZM1.51828 379.011V162.727H-1.48172V379.011H1.51828ZM0.0184631 377.511C0.0820916 377.511 0.138242 377.515 0.184959 377.52C0.23147 377.525 0.270789 377.532 0.300526 377.537C0.330028 377.543 0.353622 377.549 0.367573 377.552C0.374748 377.554 0.380531 377.555 0.384007 377.556C0.387185 377.557 0.389906 377.557 0.389447 377.557C0.389446 377.557 0.389444 377.557 0.389441 377.557C0.389438 377.557 0.38943 377.557 0.389425 377.557C0.389411 377.557 0.389388 377.557 0.38936 377.557C0.389305 377.557 0.389215 377.557 0.389104 377.557C0.388885 377.557 0.388525 377.557 0.38808 377.557C0.387208 377.557 0.385767 377.556 0.383984 377.556C0.380501 377.555 0.374711 377.554 0.367529 377.552C0.353562 377.549 0.329953 377.543 0.300437 377.537C0.270685 377.532 0.231351 377.525 0.184824 377.52C0.138093 377.515 0.0819273 377.511 0.0182838 377.511V380.511C-0.0453446 380.511 -0.101495 380.507 -0.148212 380.501C-0.194723 380.496 -0.234042 380.49 -0.263779 380.484C-0.293281 380.478 -0.316875 380.473 -0.330826 380.469C-0.338001 380.468 -0.343784 380.466 -0.34726 380.465C-0.350438 380.465 -0.353159 380.464 -0.3527 380.464C-0.352699 380.464 -0.352697 380.464 -0.352694 380.464C-0.352691 380.464 -0.352683 380.464 -0.352678 380.464C-0.352664 380.464 -0.352641 380.464 -0.352613 380.464C-0.352558 380.464 -0.352468 380.464 -0.352357 380.464C-0.352138 380.464 -0.351778 380.464 -0.351333 380.464C-0.350461 380.465 -0.349021 380.465 -0.347237 380.465C-0.343754 380.466 -0.337964 380.468 -0.330782 380.469C-0.316815 380.473 -0.293206 380.478 -0.26369 380.484C-0.233938 380.49 -0.194604 380.496 -0.148077 380.501C-0.101346 380.507 -0.0451803 380.511 0.0184631 380.511V377.511ZM1.51846 550V379.011H-1.48154V550H1.51846ZM12.0185 560.5C6.21948 560.5 1.51846 555.799 1.51846 550H-1.48154C-1.48154 557.456 4.56262 563.5 12.0185 563.5V560.5ZM373.981 560.5H12.0185V563.5H373.981V560.5ZM384.481 550C384.481 555.799 379.78 560.5 373.981 560.5V563.5C381.437 563.5 387.481 557.456 387.481 550H384.481ZM384.481 174.727V550H387.481V174.727H384.481ZM384.481 174.68C384.481 174.695 384.481 174.71 384.481 174.727H387.481C387.481 174.707 387.481 174.686 387.481 174.665L384.481 174.68Z" fill="url(#paint1_linear_1_1602)" mask="url(#path-1-inside-1_1_1602)"/>
<path d="M150.125 121.136C154.637 121.136 158.045 122.072 160.349 123.944C162.653 125.768 163.805 128.384 163.805 131.792C163.805 135.296 162.725 137.768 160.565 139.208C158.453 140.6 155.405 141.512 151.421 141.944L151.493 141.512C154.373 141.752 156.821 142.184 158.837 142.808C160.901 143.432 162.653 144.632 164.093 146.408C165.581 148.136 166.325 150.68 166.325 154.04C166.325 156.488 165.749 158.696 164.597 160.664C163.493 162.632 161.813 164.192 159.557 165.344C157.349 166.448 154.613 167 151.349 167H139.469V163.976H150.269C154.157 163.976 156.941 163.136 158.621 161.456C160.301 159.728 161.141 157.208 161.141 153.896C161.141 150.248 160.037 147.584 157.829 145.904C155.621 144.224 151.997 143.384 146.957 143.384H139.469V140.576H147.101C151.133 140.576 154.037 139.808 155.813 138.272C157.637 136.736 158.549 134.648 158.549 132.008C158.549 130.232 158.285 128.792 157.757 127.688C157.229 126.536 156.221 125.672 154.733 125.096C153.245 124.472 151.133 124.16 148.397 124.16H139.253V121.136H150.125ZM140.261 121.136V167H136.085H130.397V165.92C131.789 165.92 132.941 165.584 133.853 164.912C134.813 164.24 135.293 163.064 135.293 161.384V126.752C135.293 125.024 134.813 123.848 133.853 123.224C132.941 122.552 131.789 122.216 130.397 122.216V121.136H136.085H140.261ZM185.082 167.504C180.378 167.504 176.802 166.04 174.354 163.112C171.906 160.136 170.682 155.936 170.682 150.512C170.682 145.136 171.954 141.008 174.498 138.128C177.042 135.248 180.546 133.808 185.01 133.808C189.138 133.808 192.186 134.96 194.154 137.264C196.122 139.52 197.106 142.544 197.106 146.336C197.106 147.632 197.01 149 196.818 150.44L174.642 150.584V149.144L193.146 147.992L191.49 148.928C191.922 147.44 192.138 146.024 192.138 144.68C192.138 142.328 191.514 140.336 190.266 138.704C189.018 137.024 187.218 136.184 184.866 136.184C182.226 136.184 180.018 137.24 178.242 139.352C176.514 141.464 175.65 144.848 175.65 149.504C175.65 154.4 176.562 158.144 178.386 160.736C180.258 163.328 182.922 164.624 186.378 164.624C188.538 164.624 190.338 164.192 191.778 163.328C193.266 162.416 194.37 161.384 195.09 160.232C195.81 159.08 196.314 158.048 196.602 157.136L197.538 157.352C197.346 158.504 196.818 159.872 195.954 161.456C195.138 162.992 193.818 164.384 191.994 165.632C190.218 166.88 187.914 167.504 185.082 167.504ZM223.201 167V156.992H222.913C222.193 159.968 220.993 162.464 219.313 164.48C217.633 166.496 215.233 167.504 212.113 167.504C209.329 167.504 207.145 166.616 205.561 164.84C203.977 163.016 203.185 160.16 203.185 156.272C203.185 154.4 203.377 152.48 203.761 150.512L224.785 148.496V149.72L208.369 152.384C208.081 153.584 207.937 155 207.937 156.632C207.937 159.176 208.393 161.12 209.305 162.464C210.265 163.808 211.753 164.48 213.769 164.48C215.977 164.48 217.777 163.616 219.169 161.888C220.609 160.16 221.617 157.976 222.193 155.336C222.817 152.696 223.129 149.912 223.129 146.984C223.129 143.72 222.553 141.104 221.401 139.136C220.249 137.168 218.185 136.184 215.209 136.184C212.905 136.184 211.153 136.76 209.953 137.912C208.801 139.064 208.225 140.432 208.225 142.016C208.225 142.736 208.321 143.36 208.513 143.888C208.705 144.416 208.969 144.776 209.305 144.968V145.256L204.337 145.76C204.001 144.848 203.833 143.888 203.833 142.88C203.833 140.384 204.793 138.248 206.713 136.472C208.681 134.696 211.633 133.808 215.569 133.808C219.073 133.808 221.689 134.576 223.417 136.112C225.193 137.648 226.321 139.52 226.801 141.728C227.329 143.888 227.593 146.408 227.593 149.288V161.744C227.593 163.328 227.977 164.432 228.745 165.056C229.513 165.68 230.473 165.992 231.625 165.992V167H226.945H223.201ZM243.384 158C243.384 160.208 243.816 161.816 244.68 162.824C245.592 163.832 246.864 164.336 248.496 164.336C249.936 164.336 251.04 163.952 251.808 163.184C252.624 162.368 253.176 161.384 253.464 160.232H254.328C254.136 162.2 253.464 163.904 252.312 165.344C251.16 166.784 249.336 167.504 246.84 167.504C244.104 167.504 242.04 166.712 240.648 165.128C239.304 163.496 238.632 161.192 238.632 158.216V137.336H233.952V135.392C236.592 134.864 238.56 133.736 239.856 132.008C241.152 130.28 241.944 127.736 242.232 124.376H243.384V158ZM248.136 134.456H254.328V137.336H242.736V135.68L248.136 134.456ZM95.7307 233L81.8347 187.136H86.7307L100.555 233H95.7307ZM74.4907 233H68.8027V231.92C70.1947 231.92 71.4187 231.584 72.4747 230.912C73.5787 230.24 74.2507 229.064 74.4907 227.384L79.3867 192.752C79.6747 191.024 79.4107 189.848 78.5947 189.224C77.8267 188.552 76.7467 188.216 75.3547 188.216V187.136H81.0427H83.7067L77.9467 227.384C77.7067 229.112 78.0907 230.312 79.0987 230.984C80.1067 231.608 81.4987 231.92 83.2747 231.92V233H76.1467H74.4907ZM99.4747 233C99.4267 232.472 99.3787 232.064 99.3307 231.776C99.2347 230.192 99.2347 228.536 99.3307 226.808C99.4747 225.08 99.8827 223.232 100.555 221.264L111.139 187.136H114.379L100.699 233H99.4747ZM120.139 233H113.299V231.92C114.979 231.92 116.299 231.608 117.259 230.984C118.267 230.312 118.627 229.112 118.339 227.384L112.579 187.136H116.539H122.227V188.216C120.835 188.216 119.731 188.552 118.915 189.224C118.147 189.848 117.883 191.024 118.123 192.752L123.091 227.384C123.379 229.064 124.051 230.24 125.107 230.912C126.163 231.584 127.411 231.92 128.851 231.92V233H123.163H120.139ZM132.838 205.424C132.358 203.936 131.59 202.904 130.534 202.328C129.478 201.752 128.35 201.464 127.15 201.464V200.456H131.902H136.15L146.734 233H141.766L132.838 205.424ZM153.574 205.424C153.91 204.416 153.886 203.624 153.502 203.048C153.118 202.424 152.494 202.016 151.63 201.824C150.766 201.584 149.71 201.464 148.462 201.464V200.456H156.238H157.462H162.142V201.464C160.894 201.464 159.742 201.752 158.686 202.328C157.678 202.904 156.934 203.936 156.454 205.424L145.15 240.2C144.478 242.216 143.83 243.728 143.206 244.736C142.63 245.792 141.886 246.536 140.974 246.968C140.062 247.448 138.862 247.688 137.374 247.688C134.734 247.688 132.718 246.92 131.326 245.384C129.982 243.848 129.478 241.856 129.814 239.408L134.494 239.984C134.302 241.904 134.542 243.296 135.214 244.16C135.934 245.072 136.798 245.528 137.806 245.528C138.958 245.528 139.822 245.144 140.398 244.376C140.974 243.656 141.598 242.264 142.27 240.2L153.574 205.424ZM201.88 229.904C205.768 229.904 208.888 228.848 211.24 226.736C213.64 224.624 215.152 222.032 215.776 218.96L217.072 219.176C216.304 223.16 214.696 226.544 212.248 229.328C209.8 232.112 205.792 233.504 200.224 233.504C193.84 233.504 188.896 231.416 185.392 227.24C181.888 223.064 180.136 217.232 180.136 209.744C180.136 205.136 180.952 201.08 182.584 197.576C184.264 194.024 186.592 191.288 189.568 189.368C192.592 187.4 196.12 186.416 200.152 186.416C206.008 186.416 210.232 188.144 212.824 191.6C215.416 195.056 216.712 199.352 216.712 204.488V205.928L209.8 205.136C210.424 203.072 210.736 201.104 210.736 199.232C210.736 196.064 209.8 193.568 207.928 191.744C206.056 189.872 203.56 188.936 200.44 188.936C195.928 188.936 192.28 190.664 189.496 194.12C186.712 197.528 185.32 202.736 185.32 209.744C185.32 214.064 186.016 217.736 187.408 220.76C188.8 223.784 190.72 226.064 193.168 227.6C195.664 229.136 198.568 229.904 201.88 229.904ZM243.346 233V222.992H243.058C242.338 225.968 241.138 228.464 239.458 230.48C237.778 232.496 235.378 233.504 232.258 233.504C229.474 233.504 227.29 232.616 225.706 230.84C224.122 229.016 223.33 226.16 223.33 222.272C223.33 220.4 223.522 218.48 223.906 216.512L244.93 214.496V215.72L228.514 218.384C228.226 219.584 228.082 221 228.082 222.632C228.082 225.176 228.538 227.12 229.45 228.464C230.41 229.808 231.898 230.48 233.914 230.48C236.122 230.48 237.922 229.616 239.314 227.888C240.754 226.16 241.762 223.976 242.338 221.336C242.962 218.696 243.274 215.912 243.274 212.984C243.274 209.72 242.698 207.104 241.546 205.136C240.394 203.168 238.33 202.184 235.354 202.184C233.05 202.184 231.298 202.76 230.098 203.912C228.946 205.064 228.37 206.432 228.37 208.016C228.37 208.736 228.466 209.36 228.658 209.888C228.85 210.416 229.114 210.776 229.45 210.968V211.256L224.482 211.76C224.146 210.848 223.978 209.888 223.978 208.88C223.978 206.384 224.938 204.248 226.858 202.472C228.826 200.696 231.778 199.808 235.714 199.808C239.218 199.808 241.834 200.576 243.562 202.112C245.338 203.648 246.466 205.52 246.946 207.728C247.474 209.888 247.738 212.408 247.738 215.288V227.744C247.738 229.328 248.122 230.432 248.89 231.056C249.658 231.68 250.618 231.992 251.77 231.992V233H247.09H243.346ZM264.72 227.744C264.72 229.328 265.08 230.432 265.8 231.056C266.568 231.68 267.552 231.992 268.752 231.992V233H264.072H260.688H255.936V231.992C257.088 231.992 258.048 231.68 258.816 231.056C259.632 230.432 260.04 229.328 260.04 227.744V205.712C260.04 204.08 259.632 202.976 258.816 202.4C258.048 201.776 257.088 201.464 255.936 201.464V200.456H260.688H264.72V227.744ZM264.936 212.048C265.368 208.976 266.4 206.216 268.032 203.768C269.664 201.272 271.848 200.024 274.584 200.024C275.784 200.024 276.864 200.24 277.824 200.672C278.784 201.104 279.48 201.656 279.912 202.328L277.968 207.872L277.536 207.728C277.632 206.624 277.296 205.712 276.528 204.992C275.76 204.224 274.656 203.84 273.216 203.84C270.72 203.84 268.68 205.352 267.096 208.376C265.512 211.352 264.72 216.344 264.72 223.352H263.64V212.048H264.936ZM305.349 192.392C305.349 190.76 304.941 189.656 304.125 189.08C303.357 188.456 302.397 188.144 301.245 188.144V187.136H305.997H310.029V227.744C310.029 229.328 310.413 230.432 311.181 231.056C311.949 231.68 312.909 231.992 314.061 231.992V233H309.381H305.349V192.392ZM307.365 208.736V224.144H305.421C304.893 226.736 303.765 228.944 302.037 230.768C300.357 232.592 297.981 233.504 294.909 233.504C291.261 233.504 288.333 232.256 286.125 229.76C283.965 227.216 282.885 222.872 282.885 216.728C282.885 210.536 283.965 206.168 286.125 203.624C288.333 201.08 291.261 199.808 294.909 199.808C298.029 199.808 300.453 200.672 302.181 202.4C303.909 204.128 304.989 206.24 305.421 208.736H307.365ZM296.061 231.128C297.645 231.128 299.133 230.624 300.525 229.616C301.965 228.608 303.117 227.048 303.981 224.936C304.893 222.776 305.349 220.04 305.349 216.728C305.349 213.368 304.893 210.608 303.981 208.448C303.117 206.24 301.965 204.656 300.525 203.696C299.133 202.688 297.645 202.184 296.061 202.184C293.373 202.184 291.357 203.384 290.013 205.784C288.669 208.136 287.997 211.784 287.997 216.728C287.997 221.624 288.645 225.248 289.941 227.6C291.285 229.952 293.325 231.128 296.061 231.128Z" fill="white"/>
<mask id="mask0_1_1602" style="mask-type:alpha" maskUnits="userSpaceOnUse" x="0" y="0" width="386" height="561">
<path d="M0.179871 174.431C0.179871 167.804 5.55245 162.431 12.1799 162.431H373.307C379.934 162.431 385.307 167.804 385.307 174.431V548.978C385.307 555.606 379.934 560.978 373.307 560.978H12.1799C5.55245 560.978 0.179871 555.606 0.179871 548.978V174.431Z" fill="url(#paint2_linear_1_1602)"/>
<path d="M385.307 162.431V378.322C382.401 378.909 379.379 379.218 376.278 379.218H362.914V386.519C362.914 436.762 331.828 436.742 278.667 436.707C277.261 436.707 275.84 436.706 274.403 436.706C224.358 436.706 198.379 446.799 193.571 462.48C193.338 463.231 192.149 463.231 191.916 462.48C187.108 446.799 161.129 436.706 111.084 436.706C109.647 436.706 108.226 436.707 106.82 436.707C53.6596 436.742 22.5735 436.762 22.5735 386.519V379.218H9.20912C6.1076 379.218 3.08607 378.909 0.17997 378.322V162.431H0.161652V155.631C0.161652 104.458 38.7878 87.9735 85.5751 68.0058C121.03 52.8743 161.172 35.7427 192.744 0C224.315 35.7427 264.457 52.8743 299.912 68.0058C346.699 87.9735 385.325 104.458 385.325 155.631V162.431H385.307Z" fill="url(#paint3_linear_1_1602)"/>
</mask>
<g mask="url(#mask0_1_1602)">
<g filter="url(#filter0_f_1_1602)">
<ellipse cx="192.326" cy="605.791" rx="148.355" ry="148.459" fill="#E1A1FF"/>
</g>
<g filter="url(#filter1_bi_1_1602)">
<g clip-path="url(#clip0_1_1602)">
<rect x="273.57" y="421.406" width="151.963" height="246.767" rx="13.9743" transform="rotate(90 273.57 421.406)" fill="url(#paint4_linear_1_1602)"/>
<g clip-path="url(#clip1_1_1602)">
<path d="M251.211 421.406C259.037 421.406 262.95 421.406 265.939 422.929C268.569 424.269 270.707 426.406 272.046 429.036C273.57 432.025 273.57 435.938 273.57 443.765L273.57 551.563C273.57 559.39 273.57 563.303 272.046 566.292C270.707 568.922 268.569 571.06 265.939 572.399C262.95 573.922 259.037 573.922 251.211 573.922L82.9237 573.922L82.9237 421.406L251.211 421.406Z" fill="url(#paint5_linear_1_1602)"/>
<g filter="url(#filter2_i_1_1602)">
<circle cx="111.52" cy="464.491" r="8.72395" transform="rotate(90 111.52 464.491)" stroke="white" stroke-width="1.61668"/>
<circle cx="111.52" cy="454.959" r="8.72395" transform="rotate(90 111.52 454.959)" stroke="white" stroke-width="1.61668"/>
</g>
</g>
</g>
<rect x="273.261" y="421.715" width="151.345" height="246.149" rx="13.6655" transform="rotate(90 273.261 421.715)" stroke="url(#paint6_linear_1_1602)" stroke-width="0.617692"/>
</g>
<g filter="url(#filter3_bi_1_1602)">
<g clip-path="url(#clip2_1_1602)">
<rect x="357.85" y="379.616" width="151.963" height="246.767" rx="13.9743" transform="rotate(90 357.85 379.616)" fill="url(#paint7_linear_1_1602)"/>
<g clip-path="url(#clip3_1_1602)">
<path d="M335.491 379.616C343.318 379.616 347.231 379.616 350.22 381.139C352.849 382.479 354.987 384.617 356.327 387.246C357.85 390.236 357.85 394.149 357.85 401.975L357.85 509.774C357.85 517.6 357.85 521.513 356.327 524.503C354.987 527.132 352.849 529.27 350.22 530.61C347.231 532.133 343.317 532.133 335.491 532.133L167.204 532.133L167.204 379.616L335.491 379.616Z" fill="url(#paint8_linear_1_1602)"/>
<g filter="url(#filter4_i_1_1602)">
<g filter="url(#filter5_i_1_1602)">
<rect x="331.01" y="437.681" width="24.4027" height="19.0646" rx="3.81292" transform="rotate(-180 331.01 437.681)" fill="url(#paint9_linear_1_1602)"/>
</g>
<rect x="330.892" y="437.563" width="24.167" height="18.8289" rx="3.69509" transform="rotate(-180 330.892 437.563)" stroke="url(#paint10_linear_1_1602)" stroke-width="0.235656"/>
<path fill-rule="evenodd" clip-rule="evenodd" d="M326.815 434.249L321.096 434.249C320.254 434.249 319.571 433.566 319.571 432.724C319.571 431.882 320.254 431.199 321.096 431.199L326.815 431.199C327.658 431.199 328.341 431.882 328.341 432.724C328.341 433.566 327.658 434.249 326.815 434.249ZM328.722 432.724C328.722 433.777 327.868 434.63 326.815 434.63L321.096 434.63C320.043 434.63 319.19 433.777 319.19 432.724C319.19 431.671 320.043 430.817 321.096 430.817L326.815 430.817C327.868 430.817 328.722 431.671 328.722 432.724ZM316.521 434.249L310.801 434.249C309.959 434.249 309.276 433.566 309.276 432.724C309.276 431.881 309.959 431.199 310.801 431.199L316.521 431.199C317.363 431.199 318.046 431.881 318.046 432.724C318.046 433.566 317.363 434.249 316.521 434.249ZM318.427 432.724C318.427 433.777 317.573 434.63 316.521 434.63L310.801 434.63C309.748 434.63 308.895 433.777 308.895 432.724C308.895 431.671 309.748 430.817 310.801 430.817L316.521 430.817C317.573 430.817 318.427 431.671 318.427 432.724ZM321.096 429.674L326.815 429.674C327.658 429.674 328.341 428.991 328.341 428.148C328.341 427.306 327.658 426.623 326.815 426.623L321.096 426.623C320.254 426.623 319.571 427.306 319.571 428.148C319.571 428.991 320.254 429.674 321.096 429.674ZM326.815 430.055C327.868 430.055 328.722 429.201 328.722 428.148C328.722 427.096 327.868 426.242 326.815 426.242L321.096 426.242C320.043 426.242 319.19 427.096 319.19 428.148C319.19 429.201 320.043 430.055 321.096 430.055L326.815 430.055ZM316.521 429.674L310.801 429.674C309.959 429.674 309.276 428.991 309.276 428.148C309.276 427.306 309.959 426.623 310.801 426.623L316.521 426.623C317.363 426.623 318.046 427.306 318.046 428.148C318.046 428.991 317.363 429.674 316.521 429.674ZM318.427 428.148C318.427 429.201 317.573 430.055 316.521 430.055L310.801 430.055C309.748 430.055 308.895 429.201 308.895 428.148C308.895 427.096 309.748 426.242 310.801 426.242L316.521 426.242C317.573 426.242 318.427 427.096 318.427 428.148ZM321.096 425.099L326.815 425.099C327.658 425.099 328.341 424.416 328.341 423.574C328.341 422.731 327.658 422.048 326.815 422.048L321.096 422.048C320.254 422.048 319.571 422.731 319.571 423.574C319.571 424.416 320.254 425.099 321.096 425.099ZM326.815 425.48C327.868 425.48 328.722 424.627 328.722 423.574C328.722 422.521 327.868 421.667 326.815 421.667L321.096 421.667C320.043 421.667 319.19 422.521 319.19 423.574C319.19 424.627 320.043 425.48 321.096 425.48L326.815 425.48ZM316.521 425.099L310.801 425.099C309.959 425.099 309.276 424.416 309.276 423.574C309.276 422.731 309.959 422.048 310.801 422.048L316.521 422.048C317.363 422.048 318.046 422.731 318.046 423.574C318.046 424.416 317.363 425.099 316.521 425.099ZM318.427 423.574C318.427 424.627 317.573 425.48 316.521 425.48L310.801 425.48C309.748 425.48 308.895 424.627 308.895 423.574C308.895 422.521 309.748 421.667 310.801 421.667L316.521 421.667C317.573 421.667 318.427 422.521 318.427 423.574Z" fill="url(#paint11_linear_1_1602)"/>
</g>
<g filter="url(#filter6_i_1_1602)">
<path d="M199.029 512.72C199.16 512.819 199.309 512.891 199.467 512.931C199.626 512.971 199.79 512.979 199.952 512.955C200.278 512.905 200.571 512.724 200.766 512.453C200.962 512.182 201.045 511.842 200.996 511.509C200.947 511.176 200.77 510.876 200.505 510.676C199.889 510.206 199.204 509.839 198.476 509.588C197.72 509.328 196.928 509.195 196.13 509.197C195.335 509.196 194.544 509.328 193.791 509.588C193.062 509.839 192.377 510.206 191.761 510.676C191.496 510.876 191.32 511.176 191.271 511.509C191.222 511.842 191.304 512.182 191.5 512.453C191.696 512.724 191.989 512.905 192.315 512.955C192.641 513.005 192.973 512.92 193.238 512.72C193.642 512.41 194.091 512.167 194.568 511.999C195.071 511.821 195.598 511.729 196.13 511.726C196.659 511.724 197.184 511.81 197.686 511.981C198.169 512.153 198.622 512.402 199.029 512.72ZM201.344 508.37C199.777 507.381 197.971 506.86 196.13 506.867C194.292 506.858 192.489 507.375 190.923 508.358C190.784 508.446 190.629 508.505 190.468 508.531C190.307 508.558 190.143 508.552 189.984 508.514C189.825 508.475 189.675 508.405 189.543 508.308C189.41 508.21 189.298 508.087 189.212 507.945C189.126 507.803 189.069 507.645 189.043 507.48C189.017 507.315 189.022 507.147 189.06 506.985C189.097 506.822 189.166 506.669 189.261 506.533C189.357 506.398 189.477 506.283 189.616 506.195C191.574 504.963 193.831 504.318 196.13 504.331C198.431 504.317 200.69 504.963 202.65 506.195C202.789 506.283 202.91 506.398 203.005 506.533C203.1 506.669 203.169 506.822 203.206 506.985C203.244 507.147 203.25 507.315 203.224 507.48C203.198 507.645 203.14 507.803 203.054 507.945C202.968 508.087 202.856 508.21 202.724 508.308C202.591 508.405 202.441 508.475 202.283 508.514C202.124 508.552 201.959 508.558 201.798 508.531C201.637 508.505 201.483 508.446 201.344 508.358L201.344 508.37ZM203.683 503.741C201.384 502.368 198.769 501.645 196.106 501.647C193.445 501.646 190.832 502.369 188.535 503.741C188.394 503.825 188.238 503.881 188.076 503.904C187.915 503.927 187.75 503.917 187.592 503.874C187.434 503.832 187.286 503.759 187.156 503.658C187.025 503.557 186.916 503.431 186.833 503.287C186.751 503.143 186.697 502.984 186.674 502.819C186.652 502.653 186.661 502.485 186.703 502.323C186.744 502.162 186.816 502.01 186.914 501.877C187.013 501.744 187.136 501.632 187.277 501.547C189.952 499.943 192.998 499.1 196.1 499.105C199.212 499.095 202.271 499.936 204.959 501.541C205.244 501.714 205.451 501.996 205.533 502.325C205.615 502.653 205.566 503.002 205.397 503.294C205.227 503.585 204.952 503.796 204.63 503.88C204.309 503.964 203.968 503.914 203.683 503.741ZM206.053 499.13C203.023 497.364 199.594 496.439 196.106 496.446C192.62 496.44 189.193 497.365 186.165 499.13C186.023 499.212 185.867 499.264 185.706 499.284C185.544 499.304 185.381 499.291 185.224 499.247C185.068 499.202 184.921 499.126 184.793 499.023C184.665 498.921 184.558 498.793 184.479 498.649C184.399 498.504 184.348 498.344 184.328 498.179C184.309 498.014 184.321 497.847 184.365 497.687C184.409 497.527 184.483 497.377 184.583 497.246C184.683 497.115 184.808 497.006 184.95 496.924C188.354 494.941 192.206 493.9 196.124 493.904C200.053 493.895 203.915 494.936 207.329 496.924C207.615 497.089 207.825 497.363 207.914 497.687C208.002 498.01 207.961 498.356 207.8 498.649C207.639 498.941 207.371 499.156 207.054 499.247C206.738 499.337 206.4 499.295 206.114 499.13" fill="url(#paint12_linear_1_1602)"/>
</g>
</g>
</g>
<rect x="357.541" y="379.925" width="151.345" height="246.149" rx="13.6655" transform="rotate(90 357.541 379.925)" stroke="url(#paint13_linear_1_1602)" stroke-width="0.617692"/>
</g>
</g>
<defs>
<filter id="filter0_f_1_1602" x="-242.946" y="170.415" width="870.545" height="870.752" filterUnits="userSpaceOnUse" color-interpolation-filters="sRGB">
<feFlood flood-opacity="0" result="BackgroundImageFix"/>
<feBlend mode="normal" in="SourceGraphic" in2="BackgroundImageFix" result="shape"/>
<feGaussianBlur stdDeviation="143.459" result="effect1_foregroundBlur_1_1602"/>
</filter>
<filter id="filter1_bi_1_1602" x="18.1663" y="412.77" width="264.039" height="169.235" filterUnits="userSpaceOnUse" color-interpolation-filters="sRGB">
<feFlood flood-opacity="0" result="BackgroundImageFix"/>
<feGaussianBlur in="BackgroundImageFix" stdDeviation="4.31813"/>
<feComposite in2="SourceAlpha" operator="in" result="effect1_backgroundBlur_1_1602"/>
<feBlend mode="normal" in="SourceGraphic" in2="effect1_backgroundBlur_1_1602" result="shape"/>
<feColorMatrix in="SourceAlpha" type="matrix" values="0 0 0 0 0 0 0 0 0 0 0 0 0 0 0 0 0 0 127 0" result="hardAlpha"/>
<feOffset dx="-0.998984" dy="-0.61693"/>
<feGaussianBlur stdDeviation="0.808178"/>
<feComposite in2="hardAlpha" operator="arithmetic" k2="-1" k3="1"/>
<feColorMatrix type="matrix" values="0 0 0 0 0.980392 0 0 0 0 0.980392 0 0 0 0 0.980392 0 0 0 0.22 0"/>
<feBlend mode="normal" in2="shape" result="effect2_innerShadow_1_1602"/>
</filter>
<filter id="filter2_i_1_1602" x="101.988" y="445.426" width="19.0647" height="28.5972" filterUnits="userSpaceOnUse" color-interpolation-filters="sRGB">
<feFlood flood-opacity="0" result="BackgroundImageFix"/>
<feBlend mode="normal" in="SourceGraphic" in2="BackgroundImageFix" result="shape"/>
<feColorMatrix in="SourceAlpha" type="matrix" values="0 0 0 0 0 0 0 0 0 0 0 0 0 0 0 0 0 0 127 0" result="hardAlpha"/>
<feOffset dx="-0.617692" dy="0.61693"/>
<feComposite in2="hardAlpha" operator="arithmetic" k2="-1" k3="1"/>
<feColorMatrix type="matrix" values="0 0 0 0 0.84 0 0 0 0 0.828 0 0 0 0 0.76 0 0 0 1 0"/>
<feBlend mode="normal" in2="shape" result="effect1_innerShadow_1_1602"/>
</filter>
<filter id="filter3_bi_1_1602" x="102.447" y="370.98" width="264.04" height="169.235" filterUnits="userSpaceOnUse" color-interpolation-filters="sRGB">
<feFlood flood-opacity="0" result="BackgroundImageFix"/>
<feGaussianBlur in="BackgroundImageFix" stdDeviation="4.31813"/>
<feComposite in2="SourceAlpha" operator="in" result="effect1_backgroundBlur_1_1602"/>
<feBlend mode="normal" in="SourceGraphic" in2="effect1_backgroundBlur_1_1602" result="shape"/>
<feColorMatrix in="SourceAlpha" type="matrix" values="0 0 0 0 0 0 0 0 0 0 0 0 0 0 0 0 0 0 127 0" result="hardAlpha"/>
<feOffset dx="0.998984" dy="-0.61693"/>
<feGaussianBlur stdDeviation="0.808178"/>
<feComposite in2="hardAlpha" operator="arithmetic" k2="-1" k3="1"/>
<feColorMatrix type="matrix" values="0 0 0 0 0.980392 0 0 0 0 0.980392 0 0 0 0 0.980392 0 0 0 0.22 0"/>
<feBlend mode="normal" in2="shape" result="effect2_innerShadow_1_1602"/>
</filter>
<filter id="filter4_i_1_1602" x="305.99" y="418.616" width="25.0196" height="20.0634" filterUnits="userSpaceOnUse" color-interpolation-filters="sRGB">
<feFlood flood-opacity="0" result="BackgroundImageFix"/>
<feBlend mode="normal" in="SourceGraphic" in2="BackgroundImageFix" result="shape"/>
<feColorMatrix in="SourceAlpha" type="matrix" values="0 0 0 0 0 0 0 0 0 0 0 0 0 0 0 0 0 0 127 0" result="hardAlpha"/>
<feOffset dx="-0.61693" dy="0.998984"/>
<feGaussianBlur stdDeviation="1.30789"/>
<feComposite in2="hardAlpha" operator="arithmetic" k2="-1" k3="1"/>
<feColorMatrix type="matrix" values="0 0 0 0 0.24 0 0 0 0 0.228 0 0 0 0 0.16 0 0 0 0.5 0"/>
<feBlend mode="normal" in2="shape" result="effect1_innerShadow_1_1602"/>
</filter>
<filter id="filter5_i_1_1602" x="306.607" y="417.618" width="26.019" height="20.0626" filterUnits="userSpaceOnUse" color-interpolation-filters="sRGB">
<feFlood flood-opacity="0" result="BackgroundImageFix"/>
<feBlend mode="normal" in="SourceGraphic" in2="BackgroundImageFix" result="shape"/>
<feColorMatrix in="SourceAlpha" type="matrix" values="0 0 0 0 0 0 0 0 0 0 0 0 0 0 0 0 0 0 127 0" result="hardAlpha"/>
<feOffset dx="1.61668" dy="-0.998192"/>
<feGaussianBlur stdDeviation="0.808178"/>
<feComposite in2="hardAlpha" operator="arithmetic" k2="-1" k3="1"/>
<feColorMatrix type="matrix" values="0 0 0 0 0.48 0 0 0 0 0.456 0 0 0 0 0.32 0 0 0 0.14 0"/>
<feBlend mode="normal" in2="shape" result="effect1_innerShadow_1_1602"/>
</filter>
<filter id="filter6_i_1_1602" x="184.319" y="493.904" width="23.6401" height="19.0645" filterUnits="userSpaceOnUse" color-interpolation-filters="sRGB">
<feFlood flood-opacity="0" result="BackgroundImageFix"/>
<feBlend mode="normal" in="SourceGraphic" in2="BackgroundImageFix" result="shape"/>
<feColorMatrix in="SourceAlpha" type="matrix" values="0 0 0 0 0 0 0 0 0 0 0 0 0 0 0 0 0 0 127 0" result="hardAlpha"/>
<feOffset dx="-0.236401" dy="0.617692"/>
<feComposite in2="hardAlpha" operator="arithmetic" k2="-1" k3="1"/>
<feColorMatrix type="matrix" values="0 0 0 0 0.68 0 0 0 0 0.656 0 0 0 0 0.52 0 0 0 1 0"/>
<feBlend mode="normal" in2="shape" result="effect1_innerShadow_1_1602"/>
</filter>
<linearGradient id="paint0_linear_1_1602" x1="193" y1="0" x2="193" y2="562" gradientUnits="userSpaceOnUse">
<stop stop-color="#1A1A1A"/>
<stop offset="1" stop-color="#323232"/>
</linearGradient>
<linearGradient id="paint1_linear_1_1602" x1="193" y1="0" x2="193" y2="328.5" gradientUnits="userSpaceOnUse">
<stop stop-color="#E7CEC0"/>
<stop offset="1" stop-color="white" stop-opacity="0"/>
</linearGradient>
<linearGradient id="paint2_linear_1_1602" x1="192.744" y1="0" x2="192.744" y2="560.978" gradientUnits="userSpaceOnUse">
<stop stop-color="#1A1A1A"/>
<stop offset="1" stop-color="#323232"/>
</linearGradient>
<linearGradient id="paint3_linear_1_1602" x1="192.744" y1="0" x2="192.744" y2="560.978" gradientUnits="userSpaceOnUse">
<stop stop-color="#1A1A1A"/>
<stop offset="1" stop-color="#323232"/>
</linearGradient>
<linearGradient id="paint4_linear_1_1602" x1="425.532" y1="421.406" x2="273.723" y2="668.267" gradientUnits="userSpaceOnUse">
<stop stop-color="#D6D3C2"/>
<stop offset="1" stop-color="#5C5C5C" stop-opacity="0.54"/>
</linearGradient>
<linearGradient id="paint5_linear_1_1602" x1="273.57" y1="573.922" x2="58.8428" y2="472.277" gradientUnits="userSpaceOnUse">
<stop stop-color="#262626"/>
<stop offset="1" stop-color="#121212"/>
</linearGradient>
<linearGradient id="paint6_linear_1_1602" x1="425.532" y1="421.406" x2="273.723" y2="668.267" gradientUnits="userSpaceOnUse">
<stop stop-color="#FAFAFA"/>
<stop offset="1" stop-color="#5C5C5C" stop-opacity="0.38"/>
</linearGradient>
<linearGradient id="paint7_linear_1_1602" x1="509.813" y1="379.616" x2="358.004" y2="626.478" gradientUnits="userSpaceOnUse">
<stop stop-color="#D6D3C2"/>
<stop offset="1" stop-color="#5C5C5C" stop-opacity="0.54"/>
</linearGradient>
<linearGradient id="paint8_linear_1_1602" x1="394.607" y1="548.616" x2="94.1011" y2="371.309" gradientUnits="userSpaceOnUse">
<stop stop-color="#797666"/>
<stop offset="1" stop-color="#BFBFBF"/>
</linearGradient>
<linearGradient id="paint9_linear_1_1602" x1="328.686" y1="437.681" x2="357.809" y2="456.079" gradientUnits="userSpaceOnUse">
<stop stop-color="#D6D3C2"/>
<stop offset="0.212761" stop-color="#B6B5AF"/>
<stop offset="0.548384" stop-color="#E2E0D4"/>
<stop offset="0.914316" stop-color="#9E9D94"/>
<stop offset="1" stop-color="#ADA785"/>
</linearGradient>
<linearGradient id="paint10_linear_1_1602" x1="355.552" y1="437.681" x2="330.564" y2="456.142" gradientUnits="userSpaceOnUse">
<stop stop-color="#D6D3C2"/>
<stop offset="1" stop-color="#3D3A29" stop-opacity="0"/>
</linearGradient>
<linearGradient id="paint11_linear_1_1602" x1="308.895" y1="434.63" x2="328.721" y2="421.666" gradientUnits="userSpaceOnUse">
<stop stop-color="#BAB8AB"/>
<stop offset="1" stop-color="#A3A08F"/>
</linearGradient>
<linearGradient id="paint12_linear_1_1602" x1="207.959" y1="493.904" x2="184.319" y2="512.969" gradientUnits="userSpaceOnUse">
<stop stop-color="#FBFBF9"/>
<stop offset="1" stop-color="#ADA785"/>
</linearGradient>
<linearGradient id="paint13_linear_1_1602" x1="509.813" y1="379.616" x2="358.004" y2="626.478" gradientUnits="userSpaceOnUse">
<stop stop-color="#FAFAFA"/>
<stop offset="1" stop-color="#5C5C5C" stop-opacity="0.38"/>
</linearGradient>
<clipPath id="clip0_1_1602">
<rect x="273.57" y="421.406" width="151.963" height="246.767" rx="13.9743" transform="rotate(90 273.57 421.406)" fill="white"/>
</clipPath>
<clipPath id="clip1_1_1602">
<path d="M251.211 421.406C259.037 421.406 262.95 421.406 265.939 422.929C268.569 424.269 270.707 426.406 272.046 429.036C273.57 432.025 273.57 435.938 273.57 443.765L273.57 551.563C273.57 559.39 273.57 563.303 272.046 566.292C270.707 568.922 268.569 571.06 265.939 572.399C262.95 573.922 259.037 573.922 251.211 573.922L82.9237 573.922L82.9237 421.406L251.211 421.406Z" fill="white"/>
</clipPath>
<clipPath id="clip2_1_1602">
<rect x="357.85" y="379.616" width="151.963" height="246.767" rx="13.9743" transform="rotate(90 357.85 379.616)" fill="white"/>
</clipPath>
<clipPath id="clip3_1_1602">
<path d="M335.491 379.616C343.318 379.616 347.231 379.616 350.22 381.139C352.849 382.479 354.987 384.617 356.327 387.246C357.85 390.236 357.85 394.149 357.85 401.975L357.85 509.774C357.85 517.6 357.85 521.513 356.327 524.503C354.987 527.132 352.849 529.27 350.22 530.61C347.231 532.133 343.317 532.133 335.491 532.133L167.204 532.133L167.204 379.616L335.491 379.616Z" fill="white"/>
</clipPath>
</defs>
</svg>
