<svg width="386" height="562" viewBox="0 0 386 562" fill="none" xmlns="http://www.w3.org/2000/svg">
<mask id="path-1-inside-1_1_1614" fill="white">
<path fill-rule="evenodd" clip-rule="evenodd" d="M385.981 174.66V162.727H386V155.914C386 104.648 347.29 88.1337 300.401 68.1297C264.869 52.9706 224.64 35.8078 193 0C161.36 35.8078 121.131 52.9706 85.5989 68.1297C38.71 88.1337 0 104.648 0 155.914V162.727H0.0183487V379.011C0.0183945 379.011 0.0184402 379.011 0.018486 379.011V550C0.018486 556.627 5.39107 562 12.0185 562H373.981C380.609 562 385.981 556.627 385.981 550V174.727C385.981 174.705 385.981 174.682 385.981 174.66Z"/>
</mask>
<path fill-rule="evenodd" clip-rule="evenodd" d="M385.981 174.66V162.727H386V155.914C386 104.648 347.29 88.1337 300.401 68.1297C264.869 52.9706 224.64 35.8078 193 0C161.36 35.8078 121.131 52.9706 85.5989 68.1297C38.71 88.1337 0 104.648 0 155.914V162.727H0.0183487V379.011C0.0183945 379.011 0.0184402 379.011 0.018486 379.011V550C0.018486 556.627 5.39107 562 12.0185 562H373.981C380.609 562 385.981 556.627 385.981 550V174.727C385.981 174.705 385.981 174.682 385.981 174.66Z" fill="url(#paint0_linear_1_1614)"/>
<path d="M385.981 162.727V161.227H384.481V162.727H385.981ZM385.981 174.66H384.481L384.481 174.668L385.981 174.66ZM386 162.727V164.227H387.5V162.727H386ZM300.401 68.1297L300.99 66.75L300.401 68.1297ZM193 0L194.124 -0.993218L193 -2.26536L191.876 -0.993218L193 0ZM85.5989 68.1297L85.0103 66.75L85.5989 68.1297ZM0 162.727H-1.5V164.227H0V162.727ZM0.0183487 162.727H1.51835V161.227H0.0183487V162.727ZM0.0183487 379.011H-1.48165V380.511H0.0183487V379.011ZM0.018486 379.011H1.51849V377.511H0.018486V379.011ZM384.481 162.727V174.66H387.481V162.727H384.481ZM386 161.227H385.981V164.227H386V161.227ZM384.5 155.914V162.727H387.5V155.914H384.5ZM299.812 69.5093C323.319 79.5376 344.487 88.5831 359.82 101.448C375.039 114.217 384.5 130.751 384.5 155.914H387.5C387.5 129.812 377.606 112.455 361.748 99.1497C346.004 85.9397 324.373 76.7257 300.99 66.75L299.812 69.5093ZM191.876 0.993218C223.77 37.0885 264.309 54.3625 299.812 69.5093L300.99 66.75C265.429 51.5788 225.51 34.5271 194.124 -0.993218L191.876 0.993218ZM86.1875 69.5093C121.691 54.3625 162.23 37.0885 194.124 0.993218L191.876 -0.993218C160.49 34.5271 120.571 51.5788 85.0103 66.75L86.1875 69.5093ZM1.5 155.914C1.5 130.751 10.961 114.217 26.1802 101.448C41.5132 88.5831 62.6815 79.5377 86.1875 69.5093L85.0103 66.75C61.6274 76.7257 39.9962 85.9397 24.252 99.1497C8.39403 112.455 -1.5 129.812 -1.5 155.914H1.5ZM1.5 162.727V155.914H-1.5V162.727H1.5ZM0.0183487 161.227H0V164.227H0.0183487V161.227ZM1.51835 379.011V162.727H-1.48165V379.011H1.51835ZM0.018486 377.511C0.101641 377.511 0.174711 377.518 0.234929 377.526C0.294798 377.535 0.34494 377.546 0.382255 377.555C0.401161 377.56 0.417751 377.565 0.431517 377.569C0.445256 377.573 0.456929 377.576 0.465847 377.579C0.474698 377.582 0.481818 377.584 0.486082 377.585C0.489983 377.587 0.493322 377.588 0.492759 377.588C0.492759 377.588 0.492756 377.588 0.492752 377.588C0.492749 377.588 0.492739 377.588 0.492732 377.588C0.492716 377.588 0.492688 377.588 0.492654 377.588C0.492587 377.588 0.492476 377.588 0.49234 377.588C0.492073 377.587 0.491632 377.587 0.491086 377.587C0.490019 377.587 0.488252 377.586 0.486064 377.585C0.481795 377.584 0.47467 377.582 0.465813 377.579C0.456889 377.576 0.445211 377.573 0.431465 377.569C0.417693 377.565 0.401098 377.56 0.382186 377.555C0.34486 377.546 0.294707 377.535 0.234826 377.526C0.174597 377.518 0.101515 377.511 0.0183487 377.511V380.511C-0.064806 380.511 -0.137877 380.504 -0.198094 380.495C-0.257964 380.486 -0.308106 380.475 -0.34542 380.466C-0.364326 380.461 -0.380916 380.457 -0.394682 380.453C-0.408422 380.449 -0.420094 380.445 -0.429012 380.442C-0.437864 380.44 -0.444983 380.437 -0.449247 380.436C-0.453148 380.435 -0.456488 380.434 -0.455924 380.434C-0.455924 380.434 -0.455921 380.434 -0.455918 380.434C-0.455914 380.434 -0.455904 380.434 -0.455898 380.434C-0.455881 380.434 -0.455853 380.434 -0.455819 380.434C-0.455752 380.434 -0.455642 380.434 -0.455505 380.434C-0.455238 380.434 -0.454797 380.434 -0.454251 380.434C-0.453184 380.435 -0.451417 380.435 -0.44923 380.436C-0.44496 380.437 -0.437835 380.44 -0.428978 380.442C-0.420054 380.445 -0.408376 380.449 -0.39463 380.453C-0.380859 380.457 -0.364263 380.461 -0.345352 380.466C-0.308026 380.475 -0.257872 380.486 -0.197991 380.495C-0.137762 380.504 -0.0646801 380.511 0.018486 380.511V377.511ZM1.51849 550V379.011H-1.48151V550H1.51849ZM12.0185 560.5C6.2195 560.5 1.51849 555.799 1.51849 550H-1.48151C-1.48151 557.456 4.56264 563.5 12.0185 563.5V560.5ZM373.981 560.5H12.0185V563.5H373.981V560.5ZM384.481 550C384.481 555.799 379.78 560.5 373.981 560.5V563.5C381.437 563.5 387.481 557.456 387.481 550H384.481ZM384.481 174.727V550H387.481V174.727H384.481ZM384.481 174.668C384.481 174.688 384.481 174.707 384.481 174.727H387.481C387.481 174.702 387.481 174.677 387.481 174.652L384.481 174.668Z" fill="url(#paint1_linear_1_1614)" mask="url(#path-1-inside-1_1_1614)"/>
<path d="M88.2462 163.69C92.1342 163.69 95.2542 162.634 97.6062 160.522C100.006 158.41 101.518 155.818 102.142 152.746L103.438 152.962C102.67 156.946 101.062 160.33 98.6142 163.114C96.1662 165.898 92.1582 167.29 86.5902 167.29C80.2062 167.29 75.2622 165.202 71.7582 161.026C68.2542 156.85 66.5022 151.018 66.5022 143.53C66.5022 138.922 67.3182 134.866 68.9502 131.362C70.6302 127.81 72.9582 125.074 75.9342 123.154C78.9582 121.186 82.4862 120.202 86.5182 120.202C92.3742 120.202 96.5982 121.93 99.1902 125.386C101.782 128.842 103.078 133.138 103.078 138.274V139.714L96.1662 138.922C96.7902 136.858 97.1022 134.89 97.1022 133.018C97.1022 129.85 96.1662 127.354 94.2942 125.53C92.4222 123.658 89.9262 122.722 86.8062 122.722C82.2942 122.722 78.6462 124.45 75.8622 127.906C73.0782 131.314 71.6862 136.522 71.6862 143.53C71.6862 147.85 72.3822 151.522 73.7742 154.546C75.1662 157.57 77.0862 159.85 79.5342 161.386C82.0302 162.922 84.9342 163.69 88.2462 163.69ZM122.882 133.594C125.954 133.594 128.57 134.338 130.73 135.826C132.89 137.266 134.522 139.258 135.626 141.802C136.73 144.346 137.282 147.226 137.282 150.442C137.282 153.658 136.73 156.538 135.626 159.082C134.522 161.626 132.89 163.642 130.73 165.13C128.57 166.57 125.954 167.29 122.882 167.29C118.274 167.29 114.722 165.73 112.226 162.61C109.73 159.442 108.482 155.386 108.482 150.442C108.482 147.226 109.034 144.346 110.138 141.802C111.242 139.258 112.874 137.266 115.034 135.826C117.194 134.338 119.81 133.594 122.882 133.594ZM122.882 164.914C126.05 164.914 128.378 163.594 129.866 160.954C131.402 158.266 132.17 154.762 132.17 150.442C132.17 146.122 131.402 142.642 129.866 140.002C128.378 137.314 126.05 135.97 122.882 135.97C119.714 135.97 117.362 137.314 115.826 140.002C114.338 142.642 113.594 146.122 113.594 150.442C113.594 154.762 114.338 158.266 115.826 160.954C117.362 163.594 119.714 164.914 122.882 164.914ZM169.311 153.898H167.511V142.882H169.599C169.983 140.53 170.943 138.394 172.479 136.474C174.015 134.554 176.271 133.594 179.247 133.594C182.319 133.594 184.551 134.554 185.943 136.474C187.335 138.394 188.031 141.154 188.031 144.754V161.53C188.031 163.114 188.391 164.218 189.111 164.842C189.879 165.466 190.863 165.778 192.063 165.778V166.786H187.383H183.999H179.247V165.778C180.399 165.778 181.359 165.466 182.127 164.842C182.943 164.218 183.351 163.114 183.351 161.53V145.474C183.351 142.114 182.967 139.714 182.199 138.274C181.431 136.786 179.967 136.042 177.807 136.042C175.311 136.042 173.271 137.482 171.687 140.362C170.103 143.242 169.311 147.754 169.311 153.898ZM150.735 153.898H148.935V142.81H150.951C151.383 140.506 152.343 138.394 153.831 136.474C155.367 134.554 157.647 133.594 160.671 133.594C163.695 133.594 165.879 134.554 167.223 136.474C168.615 138.346 169.311 141.106 169.311 144.754V161.53C169.311 163.114 169.695 164.218 170.463 164.842C171.231 165.466 172.191 165.778 173.343 165.778V166.786H168.663H165.279H160.527V165.778C161.727 165.778 162.711 165.466 163.479 164.842C164.247 164.218 164.631 163.114 164.631 161.53V145.474C164.631 142.162 164.247 139.762 163.479 138.274C162.711 136.786 161.247 136.042 159.087 136.042C156.639 136.042 154.623 137.458 153.039 140.29C151.503 143.122 150.735 147.658 150.735 153.898ZM150.735 161.53C150.735 163.114 151.095 164.218 151.815 164.842C152.583 165.466 153.567 165.778 154.767 165.778V166.786H150.087H146.703H141.951V165.778C143.103 165.778 144.063 165.466 144.831 164.842C145.647 164.218 146.055 163.114 146.055 161.53V139.498C146.055 137.866 145.647 136.762 144.831 136.186C144.063 135.562 143.103 135.25 141.951 135.25V134.242H146.703H150.735V161.53ZM202.945 180.754H198.913H194.161V179.746C195.313 179.746 196.273 179.434 197.041 178.81C197.857 178.186 198.265 177.082 198.265 175.498V139.498C198.265 137.866 197.857 136.762 197.041 136.186C196.273 135.562 195.313 135.25 194.161 135.25V134.242H198.913H202.945V180.754ZM202.873 142.522C203.305 140.026 204.385 137.914 206.113 136.186C207.841 134.458 210.265 133.594 213.385 133.594C217.033 133.594 219.937 134.866 222.097 137.41C224.305 139.954 225.409 144.322 225.409 150.514C225.409 156.658 224.305 161.002 222.097 163.546C219.937 166.042 217.033 167.29 213.385 167.29C210.313 167.29 207.913 166.378 206.185 164.554C204.505 162.73 203.401 160.522 202.873 157.93H200.929V142.522H202.873ZM212.233 164.914C214.969 164.914 216.985 163.738 218.281 161.386C219.625 159.034 220.297 155.41 220.297 150.514C220.297 145.57 219.625 141.922 218.281 139.57C216.937 137.17 214.921 135.97 212.233 135.97C210.649 135.97 209.137 136.474 207.697 137.482C206.305 138.442 205.153 140.026 204.241 142.234C203.377 144.394 202.945 147.154 202.945 150.514C202.945 153.826 203.377 156.562 204.241 158.722C205.153 160.834 206.305 162.394 207.697 163.402C209.137 164.41 210.649 164.914 212.233 164.914ZM251.704 166.786V156.778H251.416C250.696 159.754 249.496 162.25 247.816 164.266C246.136 166.282 243.736 167.29 240.616 167.29C237.832 167.29 235.648 166.402 234.064 164.626C232.48 162.802 231.688 159.946 231.688 156.058C231.688 154.186 231.88 152.266 232.264 150.298L253.288 148.282V149.506L236.872 152.17C236.584 153.37 236.44 154.786 236.44 156.418C236.44 158.962 236.896 160.906 237.808 162.25C238.768 163.594 240.256 164.266 242.272 164.266C244.48 164.266 246.28 163.402 247.672 161.674C249.112 159.946 250.12 157.762 250.696 155.122C251.32 152.482 251.632 149.698 251.632 146.77C251.632 143.506 251.056 140.89 249.904 138.922C248.752 136.954 246.688 135.97 243.712 135.97C241.408 135.97 239.656 136.546 238.456 137.698C237.304 138.85 236.728 140.218 236.728 141.802C236.728 142.522 236.824 143.146 237.016 143.674C237.208 144.202 237.472 144.562 237.808 144.754V145.042L232.84 145.546C232.504 144.634 232.336 143.674 232.336 142.666C232.336 140.17 233.296 138.034 235.216 136.258C237.184 134.482 240.136 133.594 244.072 133.594C247.576 133.594 250.192 134.362 251.92 135.898C253.696 137.434 254.824 139.306 255.304 141.514C255.832 143.674 256.096 146.194 256.096 149.074V161.53C256.096 163.114 256.48 164.218 257.248 164.842C258.016 165.466 258.976 165.778 260.128 165.778V166.786H255.448H251.704ZM273.079 161.53C273.079 163.114 273.439 164.218 274.159 164.842C274.927 165.466 275.911 165.778 277.111 165.778V166.786H272.431H269.047H264.295V165.778C265.447 165.778 266.407 165.466 267.175 164.842C267.991 164.218 268.399 163.114 268.399 161.53V139.498C268.399 137.866 267.991 136.762 267.175 136.186C266.407 135.562 265.447 135.25 264.295 135.25V134.242H269.047H273.079V161.53ZM273.295 145.834C273.727 142.762 274.759 140.002 276.391 137.554C278.023 135.058 280.207 133.81 282.943 133.81C284.143 133.81 285.223 134.026 286.183 134.458C287.143 134.89 287.839 135.442 288.271 136.114L286.327 141.658L285.895 141.514C285.991 140.41 285.655 139.498 284.887 138.778C284.119 138.01 283.015 137.626 281.575 137.626C279.079 137.626 277.039 139.138 275.455 142.162C273.871 145.138 273.079 150.13 273.079 157.138H271.999V145.834H273.295ZM306.749 167.29C302.045 167.29 298.469 165.826 296.021 162.898C293.573 159.922 292.349 155.722 292.349 150.298C292.349 144.922 293.621 140.794 296.165 137.914C298.709 135.034 302.213 133.594 306.677 133.594C310.805 133.594 313.853 134.746 315.821 137.05C317.789 139.306 318.773 142.33 318.773 146.122C318.773 147.418 318.677 148.786 318.485 150.226L296.309 150.37V148.93L314.813 147.778L313.157 148.714C313.589 147.226 313.805 145.81 313.805 144.466C313.805 142.114 313.181 140.122 311.933 138.49C310.685 136.81 308.885 135.97 306.533 135.97C303.893 135.97 301.685 137.026 299.909 139.138C298.181 141.25 297.317 144.634 297.317 149.29C297.317 154.186 298.229 157.93 300.053 160.522C301.925 163.114 304.589 164.41 308.045 164.41C310.205 164.41 312.005 163.978 313.445 163.114C314.933 162.202 316.037 161.17 316.757 160.018C317.477 158.866 317.981 157.834 318.269 156.922L319.205 157.138C319.013 158.29 318.485 159.658 317.621 161.242C316.805 162.778 315.485 164.17 313.661 165.418C311.885 166.666 309.581 167.29 306.749 167.29ZM132.93 229.69C136.818 229.69 139.938 228.634 142.29 226.522C144.69 224.41 146.202 221.818 146.826 218.746L148.122 218.962C147.354 222.946 145.746 226.33 143.298 229.114C140.85 231.898 136.842 233.29 131.274 233.29C124.89 233.29 119.946 231.202 116.442 227.026C112.938 222.85 111.186 217.018 111.186 209.53C111.186 204.922 112.002 200.866 113.634 197.362C115.314 193.81 117.642 191.074 120.618 189.154C123.642 187.186 127.17 186.202 131.202 186.202C137.058 186.202 141.282 187.93 143.874 191.386C146.466 194.842 147.762 199.138 147.762 204.274V205.714L140.85 204.922C141.474 202.858 141.786 200.89 141.786 199.018C141.786 195.85 140.85 193.354 138.978 191.53C137.106 189.658 134.61 188.722 131.49 188.722C126.978 188.722 123.33 190.45 120.546 193.906C117.762 197.314 116.37 202.522 116.37 209.53C116.37 213.85 117.066 217.522 118.458 220.546C119.85 223.57 121.77 225.85 124.218 227.386C126.714 228.922 129.618 229.69 132.93 229.69ZM174.396 232.786V222.778H174.108C173.388 225.754 172.188 228.25 170.508 230.266C168.828 232.282 166.428 233.29 163.308 233.29C160.524 233.29 158.34 232.402 156.756 230.626C155.172 228.802 154.38 225.946 154.38 222.058C154.38 220.186 154.572 218.266 154.956 216.298L175.98 214.282V215.506L159.564 218.17C159.276 219.37 159.132 220.786 159.132 222.418C159.132 224.962 159.588 226.906 160.5 228.25C161.46 229.594 162.948 230.266 164.964 230.266C167.172 230.266 168.972 229.402 170.364 227.674C171.804 225.946 172.812 223.762 173.388 221.122C174.012 218.482 174.324 215.698 174.324 212.77C174.324 209.506 173.748 206.89 172.596 204.922C171.444 202.954 169.38 201.97 166.404 201.97C164.1 201.97 162.348 202.546 161.148 203.698C159.996 204.85 159.42 206.218 159.42 207.802C159.42 208.522 159.516 209.146 159.708 209.674C159.9 210.202 160.164 210.562 160.5 210.754V211.042L155.532 211.546C155.196 210.634 155.028 209.674 155.028 208.666C155.028 206.17 155.988 204.034 157.908 202.258C159.876 200.482 162.828 199.594 166.764 199.594C170.268 199.594 172.884 200.362 174.612 201.898C176.388 203.434 177.516 205.306 177.996 207.514C178.524 209.674 178.788 212.194 178.788 215.074V227.53C178.788 229.114 179.172 230.218 179.94 230.842C180.708 231.466 181.668 231.778 182.82 231.778V232.786H178.14H174.396ZM195.77 227.53C195.77 229.114 196.13 230.218 196.85 230.842C197.618 231.466 198.602 231.778 199.802 231.778V232.786H195.122H191.738H186.986V231.778C188.138 231.778 189.098 231.466 189.866 230.842C190.682 230.218 191.09 229.114 191.09 227.53V205.498C191.09 203.866 190.682 202.762 189.866 202.186C189.098 201.562 188.138 201.25 186.986 201.25V200.242H191.738H195.77V227.53ZM195.986 211.834C196.418 208.762 197.45 206.002 199.082 203.554C200.714 201.058 202.898 199.81 205.634 199.81C206.834 199.81 207.914 200.026 208.874 200.458C209.834 200.89 210.53 201.442 210.962 202.114L209.018 207.658L208.586 207.514C208.682 206.41 208.346 205.498 207.578 204.778C206.81 204.01 205.706 203.626 204.266 203.626C201.77 203.626 199.73 205.138 198.146 208.162C196.562 211.138 195.77 216.13 195.77 223.138H194.69V211.834H195.986ZM236.398 192.178C236.398 190.546 235.99 189.442 235.174 188.866C234.406 188.242 233.446 187.93 232.294 187.93V186.922H237.046H241.078V227.53C241.078 229.114 241.462 230.218 242.23 230.842C242.998 231.466 243.958 231.778 245.11 231.778V232.786H240.43H236.398V192.178ZM238.414 208.522V223.93H236.47C235.942 226.522 234.814 228.73 233.086 230.554C231.406 232.378 229.03 233.29 225.958 233.29C222.31 233.29 219.382 232.042 217.174 229.546C215.014 227.002 213.934 222.658 213.934 216.514C213.934 210.322 215.014 205.954 217.174 203.41C219.382 200.866 222.31 199.594 225.958 199.594C229.078 199.594 231.502 200.458 233.23 202.186C234.958 203.914 236.038 206.026 236.47 208.522H238.414ZM227.11 230.914C228.694 230.914 230.182 230.41 231.574 229.402C233.014 228.394 234.166 226.834 235.03 224.722C235.942 222.562 236.398 219.826 236.398 216.514C236.398 213.154 235.942 210.394 235.03 208.234C234.166 206.026 233.014 204.442 231.574 203.482C230.182 202.474 228.694 201.97 227.11 201.97C224.422 201.97 222.406 203.17 221.062 205.57C219.718 207.922 219.046 211.57 219.046 216.514C219.046 221.41 219.694 225.034 220.99 227.386C222.334 229.738 224.374 230.914 227.11 230.914ZM266.767 214.642C269.311 215.458 271.159 216.586 272.311 218.026C273.463 219.466 274.039 221.362 274.039 223.714C274.039 227.41 272.911 229.93 270.655 231.274C268.399 232.618 265.615 233.29 262.303 233.29C259.471 233.29 257.047 232.786 255.031 231.778C253.063 230.722 251.551 229.498 250.495 228.106V218.026H251.359C251.839 222.154 253.015 225.346 254.887 227.602C256.759 229.81 259.231 230.914 262.303 230.914C264.607 230.914 266.407 230.386 267.703 229.33C268.999 228.226 269.647 226.642 269.647 224.578C269.647 223.138 269.239 221.938 268.423 220.978C267.607 220.018 266.239 219.226 264.319 218.602L258.127 216.586C255.823 215.866 254.071 214.834 252.871 213.49C251.719 212.146 251.143 210.394 251.143 208.234C251.143 205.834 252.079 203.794 253.951 202.114C255.823 200.434 258.583 199.594 262.231 199.594C264.247 199.594 266.215 199.906 268.135 200.53C270.103 201.154 271.711 201.994 272.959 203.05L273.535 211.834H272.671C271.711 208.426 270.415 205.93 268.783 204.346C267.151 202.762 265.039 201.97 262.447 201.97C260.383 201.97 258.703 202.474 257.407 203.482C256.159 204.49 255.535 205.786 255.535 207.37C255.535 208.714 255.895 209.77 256.615 210.538C257.335 211.306 258.535 211.954 260.215 212.482L266.767 214.642Z" fill="white"/>
<mask id="mask0_1_1614" style="mask-type:alpha" maskUnits="userSpaceOnUse" x="0" y="0" width="386" height="561">
<path d="M0.341549 174.431C0.341549 167.804 5.71413 162.431 12.3415 162.431H373.468C380.096 162.431 385.468 167.804 385.468 174.431V548.978C385.468 555.606 380.096 560.978 373.468 560.978H12.3415C5.71413 560.978 0.341549 555.606 0.341549 548.978V174.431Z" fill="url(#paint2_linear_1_1614)"/>
<path d="M385.468 162.431V378.322C382.562 378.909 379.541 379.218 376.44 379.218H363.075V386.519C363.075 436.762 331.989 436.742 278.829 436.707C277.423 436.707 276.002 436.706 274.565 436.706C224.52 436.706 198.54 446.799 193.732 462.48C193.5 463.231 192.311 463.231 192.078 462.48C187.27 446.799 161.291 436.706 111.245 436.706C109.809 436.706 108.388 436.707 106.982 436.707C53.8213 436.742 22.7352 436.762 22.7352 386.519V379.218H9.3708C6.26927 379.218 3.24774 378.909 0.341633 378.322V162.431H0.323334V155.631C0.323334 104.458 38.9495 87.9735 85.7368 68.0058C121.192 52.8743 161.334 35.7427 192.905 0C224.476 35.7427 264.618 52.8743 300.074 68.0058C346.861 87.9735 385.487 104.458 385.487 155.631V162.431H385.468Z" fill="url(#paint3_linear_1_1614)"/>
</mask>
<g mask="url(#mask0_1_1614)">
<g filter="url(#filter0_f_1_1614)">
<ellipse cx="192.586" cy="601.708" rx="146.266" ry="146.368" fill="#FFD9A1"/>
</g>
<g filter="url(#filter1_bdi_1_1614)">
<g clip-path="url(#clip0_1_1614)">
<rect width="114.481" height="186.032" rx="10.5331" transform="matrix(0.865874 0.500262 -0.865874 0.500262 101.729 474.186)" fill="url(#paint4_linear_1_1614)" shape-rendering="crispEdges"/>
<g clip-path="url(#clip1_1_1614)">
<path d="M87.1363 482.616C92.2441 479.665 94.7981 478.19 97.7431 477.637C100.334 477.151 103.124 477.151 105.715 477.637C108.66 478.19 111.214 479.665 116.321 482.616L186.676 523.264C191.784 526.215 194.338 527.691 195.295 529.392C196.137 530.889 196.137 532.501 195.295 533.998C194.338 535.699 191.784 537.175 186.676 540.126L76.8438 603.582L-22.6962 546.073L87.1363 482.616Z" fill="url(#paint5_linear_1_1614)"/>
<g filter="url(#filter2_i_1_1614)">
<circle cx="7.18493" cy="7.18493" r="6.57565" transform="matrix(0.865874 0.500262 -0.865874 0.500262 24.0877 544.348)" stroke="white" stroke-width="1.21857"/>
<circle cx="7.18493" cy="7.18493" r="6.57565" transform="matrix(0.865874 0.500262 -0.865874 0.500262 17.8657 540.753)" stroke="white" stroke-width="1.21857"/>
</g>
</g>
<g style="mix-blend-mode:overlay" opacity="0.1">
<rect y="0.143774" width="114.672" height="42.8222" transform="matrix(0.865874 0.500262 -0.865874 0.500262 -22.572 546.144)" fill="url(#paint6_linear_1_1614)"/>
<rect y="0.143774" width="114.672" height="42.8222" transform="matrix(0.865874 0.500262 -0.865874 0.500262 -22.572 546.144)" stroke="url(#paint7_linear_1_1614)" stroke-width="0.287398"/>
</g>
</g>
</g>
<g filter="url(#filter3_bdi_1_1614)">
<g clip-path="url(#clip2_1_1614)">
<rect width="114.481" height="186.034" rx="10.5331" transform="matrix(0.865874 0.500262 -0.859249 0.511557 302.713 353.535)" fill="url(#paint8_linear_1_1614)" shape-rendering="crispEdges"/>
<g clip-path="url(#clip3_1_1614)">
<path d="M288.232 362.156C293.301 359.138 295.835 357.629 298.765 357.051C301.343 356.542 304.123 356.524 306.706 356.999C309.644 357.539 312.198 359.014 317.306 361.966L387.661 402.613C392.768 405.564 395.322 407.04 396.287 408.754C397.135 410.263 397.146 411.893 396.317 413.412C395.375 415.139 392.841 416.648 387.772 419.666L278.78 484.554L179.24 427.045L288.232 362.156Z" fill="url(#paint9_linear_1_1614)"/>
<g filter="url(#filter4_i_1_1614)">
<g filter="url(#filter5_i_1_1614)">
<rect width="18.3934" height="14.3699" rx="2.87398" transform="matrix(0.865874 0.500262 -0.859249 0.511557 220.856 422.12)" fill="url(#paint10_linear_1_1614)"/>
</g>
<rect x="0.000588362" y="0.0898622" width="18.2158" height="14.1923" rx="2.78516" transform="matrix(0.865874 0.500262 -0.859249 0.511557 220.933 422.163)" stroke="url(#paint11_linear_1_1614)" stroke-width="0.177625"/>
<path fill-rule="evenodd" clip-rule="evenodd" d="M228.09 428.906L231.823 431.062C232.372 431.38 232.376 431.901 231.83 432.225C231.285 432.55 230.397 432.556 229.847 432.238L226.114 430.082C225.564 429.764 225.561 429.243 226.107 428.919C226.652 428.594 227.54 428.588 228.09 428.906ZM225.858 428.775C226.54 428.369 227.65 428.361 228.337 428.759L232.069 430.915C232.757 431.312 232.761 431.963 232.079 432.369C231.397 432.775 230.287 432.782 229.6 432.385L225.867 430.229C225.18 429.832 225.176 429.181 225.858 428.775ZM221.371 425.024L225.104 427.181C225.654 427.498 225.657 428.019 225.112 428.344C224.566 428.669 223.678 428.674 223.128 428.357L219.396 426.2C218.846 425.883 218.843 425.362 219.388 425.037C219.934 424.712 220.821 424.706 221.371 425.024ZM219.139 424.893C219.821 424.487 220.931 424.48 221.618 424.877L225.351 427.034C226.038 427.431 226.042 428.082 225.36 428.488C224.679 428.894 223.569 428.901 222.881 428.504L219.149 426.347C218.462 425.95 218.457 425.299 219.139 424.893ZM222.14 428.944L218.407 426.788C217.858 426.47 216.97 426.476 216.424 426.801C215.879 427.126 215.882 427.646 216.432 427.964L220.165 430.121C220.714 430.438 221.602 430.432 222.148 430.108C222.693 429.783 222.69 429.262 222.14 428.944ZM218.654 426.641C217.967 426.244 216.857 426.251 216.175 426.657C215.494 427.063 215.498 427.714 216.185 428.111L219.918 430.268C220.605 430.665 221.715 430.657 222.397 430.251C223.079 429.845 223.074 429.194 222.387 428.797L218.654 426.641ZM225.126 430.67L228.859 432.826C229.409 433.144 229.412 433.665 228.867 433.99C228.321 434.314 227.433 434.32 226.883 434.003L223.151 431.846C222.601 431.528 222.598 431.008 223.143 430.683C223.689 430.358 224.577 430.352 225.126 430.67ZM222.894 430.539C223.576 430.133 224.686 430.126 225.373 430.523L229.106 432.679C229.793 433.076 229.797 433.727 229.115 434.133C228.434 434.539 227.324 434.547 226.637 434.15L222.904 431.993C222.217 431.596 222.212 430.945 222.894 430.539ZM219.177 430.709L215.444 428.552C214.894 428.235 214.006 428.241 213.461 428.565C212.915 428.89 212.919 429.411 213.468 429.729L217.201 431.885C217.751 432.203 218.639 432.197 219.184 431.872C219.73 431.547 219.726 431.027 219.177 430.709ZM215.691 428.405C215.004 428.008 213.894 428.016 213.212 428.422C212.53 428.828 212.534 429.479 213.221 429.876L216.954 432.032C217.641 432.429 218.751 432.422 219.433 432.016C220.115 431.61 220.111 430.959 219.424 430.562L215.691 428.405ZM222.163 432.434L225.896 434.591C226.445 434.908 226.449 435.429 225.903 435.754C225.358 436.079 224.47 436.084 223.92 435.767L220.187 433.61C219.638 433.292 219.634 432.772 220.18 432.447C220.725 432.122 221.613 432.116 222.163 432.434ZM219.931 432.303C220.613 431.897 221.723 431.89 222.41 432.287L226.143 434.444C226.83 434.841 226.834 435.492 226.152 435.898C225.47 436.303 224.36 436.311 223.673 435.914L219.94 433.757C219.253 433.36 219.249 432.709 219.931 432.303Z" fill="url(#paint12_linear_1_1614)"/>
</g>
<g filter="url(#filter6_i_1_1614)">
<path d="M359.64 406.536C359.66 406.448 359.71 406.364 359.786 406.288C359.863 406.211 359.964 406.145 360.085 406.092C360.329 405.985 360.636 405.94 360.94 405.967C361.244 405.994 361.519 406.09 361.705 406.234C361.89 406.379 361.972 406.56 361.931 406.738C361.838 407.153 361.634 407.555 361.326 407.93C361.007 408.32 360.58 408.676 360.062 408.982C359.548 409.289 358.95 409.544 358.292 409.737C357.656 409.923 356.973 410.049 356.268 410.109C355.965 410.136 355.655 410.091 355.406 409.984C355.157 409.878 354.989 409.718 354.938 409.54C354.888 409.362 354.96 409.181 355.139 409.037C355.317 408.892 355.587 408.796 355.89 408.769C356.354 408.73 356.803 408.649 357.222 408.528C357.663 408.401 358.065 408.233 358.412 408.029C358.755 407.826 359.04 407.591 359.253 407.333C359.454 407.082 359.584 406.813 359.64 406.536ZM363.978 407.284C363.609 408.261 362.78 409.154 361.583 409.861C360.398 410.573 358.893 411.074 357.237 411.307C357.09 411.327 356.952 411.364 356.83 411.417C356.708 411.469 356.605 411.534 356.527 411.61C356.45 411.686 356.398 411.77 356.376 411.858C356.354 411.946 356.362 412.035 356.399 412.122C356.436 412.209 356.502 412.29 356.592 412.363C356.683 412.435 356.797 412.496 356.927 412.543C357.057 412.59 357.202 412.621 357.352 412.635C357.502 412.649 357.655 412.646 357.802 412.626C359.875 412.335 361.758 411.709 363.238 410.817C364.738 409.935 365.779 408.821 366.244 407.6C366.277 407.514 366.28 407.424 366.253 407.336C366.227 407.248 366.171 407.164 366.089 407.088C366.007 407.012 365.901 406.947 365.777 406.895C365.653 406.843 365.512 406.805 365.364 406.785C365.216 406.764 365.063 406.761 364.913 406.775C364.764 406.79 364.621 406.821 364.493 406.868C364.365 406.915 364.254 406.976 364.168 407.048C364.081 407.12 364.019 407.202 363.986 407.288L363.978 407.284ZM368.515 408.127C367.922 409.532 366.7 410.813 364.974 411.839C363.251 412.865 361.087 413.6 358.704 413.968C358.557 413.991 358.421 414.03 358.301 414.084C358.181 414.138 358.081 414.205 358.006 414.281C357.931 414.358 357.883 414.443 357.865 414.531C357.846 414.62 357.857 414.709 357.898 414.795C357.938 414.882 358.007 414.963 358.101 415.034C358.194 415.105 358.31 415.164 358.442 415.209C358.575 415.254 358.72 415.284 358.871 415.296C359.022 415.308 359.174 415.303 359.321 415.281C362.101 414.854 364.624 413.997 366.629 412.799C368.652 411.603 370.084 410.107 370.777 408.465C370.849 408.29 370.798 408.104 370.637 407.948C370.476 407.793 370.217 407.68 369.917 407.635C369.617 407.591 369.3 407.617 369.038 407.71C368.775 407.802 368.587 407.952 368.515 408.127ZM373.059 408.952C372.249 410.787 370.632 412.458 368.369 413.8C366.115 415.146 363.292 416.119 360.178 416.621C360.033 416.645 359.898 416.685 359.781 416.74C359.663 416.794 359.565 416.862 359.493 416.94C359.421 417.017 359.375 417.102 359.36 417.19C359.344 417.278 359.358 417.367 359.4 417.453C359.443 417.538 359.514 417.618 359.609 417.688C359.704 417.757 359.822 417.816 359.955 417.859C360.087 417.903 360.233 417.931 360.383 417.941C360.534 417.952 360.686 417.945 360.831 417.921C364.33 417.356 367.504 416.264 370.039 414.751C372.589 413.24 374.412 411.358 375.325 409.292C375.403 409.12 375.36 408.935 375.206 408.779C375.052 408.623 374.8 408.508 374.505 408.46C374.209 408.412 373.895 408.434 373.632 408.522C373.368 408.61 373.176 408.756 373.098 408.929" fill="url(#paint13_linear_1_1614)"/>
</g>
<g filter="url(#filter7_i_1_1614)">
<path d="M266.02 386.02L266.577 385.689L267.427 386.035L272.496 383.017L271.894 382.524L272.455 382.19L273.181 382.609L274.058 383.116L274.784 383.535L274.223 383.869L273.373 383.524L268.291 386.549L270.584 387.874L271.703 387.328L272.376 387.717L270.692 388.719L266.02 386.02ZM272.203 389.701C271.701 389.411 271.441 389.119 271.421 388.824C271.404 388.528 271.617 388.248 272.059 387.985C272.362 387.804 272.709 387.695 273.099 387.658C273.495 387.621 273.914 387.657 274.355 387.767C274.8 387.875 275.243 388.057 275.685 388.312L276.545 388.809L277.013 388.53C277.302 388.358 277.437 388.173 277.418 387.976C277.402 387.78 277.233 387.589 276.913 387.404C276.711 387.287 276.511 387.201 276.312 387.145C276.117 387.088 275.915 387.049 275.708 387.029L274.947 387.373L274.27 386.982L275.366 386.329C275.757 386.351 276.14 386.419 276.517 386.532C276.896 386.644 277.261 386.802 277.611 387.004C278.196 387.342 278.516 387.689 278.572 388.046C278.627 388.403 278.397 388.735 277.882 389.042L275.579 390.413C275.517 390.45 275.457 390.486 275.398 390.521C275.342 390.558 275.288 390.595 275.235 390.634L275.654 390.933L275.097 391.264L273.837 390.536C273.94 390.444 274.035 390.362 274.123 390.292C274.212 390.222 274.304 390.155 274.402 390.09C274.017 390.121 273.625 390.105 273.226 390.043C272.832 389.982 272.491 389.868 272.203 389.701ZM273.061 389.342C273.352 389.51 273.687 389.622 274.066 389.679C274.445 389.735 274.784 389.736 275.082 389.68L275.948 389.164L275.058 388.65C274.654 388.416 274.255 388.298 273.862 388.296C273.469 388.293 273.154 388.362 272.918 388.502C272.709 388.627 272.614 388.76 272.633 388.902C272.654 389.043 272.797 389.189 273.061 389.342ZM275.004 391.211L275.561 390.879L276.411 391.225L281.939 387.934L281.337 387.441L281.898 387.106L283.501 388.033L277.288 391.732L277.89 392.225L277.333 392.556L275.004 391.211ZM278.099 392.999L278.656 392.667L279.203 392.916L279.208 392.898L279.599 391.03L280.747 390.879L280.245 393.461L280.834 393.926L280.277 394.257L278.099 392.999ZM277.928 391.278L278.288 390.682L282.449 390.66L282.498 390.657L282.039 390.324L282.6 389.99L284.675 391.189L284.114 391.523L283.38 391.234L277.928 391.278ZM281.913 395.311C281.589 395.124 281.319 394.93 281.101 394.728C280.884 394.527 280.684 394.294 280.502 394.03L281.629 393.348L282.293 393.732L281.772 394.235C281.871 394.371 281.981 394.494 282.103 394.602C282.231 394.711 282.386 394.817 282.567 394.922C282.923 395.128 283.246 395.235 283.536 395.243C283.826 395.252 284.071 395.196 284.271 395.077C284.46 394.965 284.54 394.825 284.513 394.657C284.491 394.488 284.321 394.259 284.002 393.968C283.553 393.553 283.301 393.2 283.246 392.908C283.196 392.617 283.357 392.361 283.729 392.14C283.988 391.986 284.295 391.892 284.649 391.858C285.007 391.823 285.381 391.848 285.772 391.932C286.163 392.016 286.538 392.162 286.898 392.369C287.263 392.58 287.533 392.785 287.709 392.983C287.888 393.183 288.005 393.38 288.059 393.574L287.012 394.25L286.353 393.869L286.847 393.408C286.819 393.302 286.755 393.196 286.654 393.089C286.553 392.982 286.41 392.876 286.226 392.769C285.953 392.611 285.667 392.521 285.368 392.496C285.072 392.474 284.828 392.52 284.637 392.634C284.525 392.701 284.451 392.772 284.416 392.849C284.384 392.927 284.404 393.027 284.476 393.148C284.551 393.267 284.691 393.424 284.896 393.618C285.411 394.099 285.68 394.488 285.702 394.784C285.728 395.082 285.564 395.337 285.21 395.547C284.807 395.787 284.317 395.902 283.74 395.89C283.169 395.878 282.56 395.685 281.913 395.311ZM283.765 396.273L284.322 395.941L285.172 396.287L290.7 392.995L290.098 392.502L290.659 392.168L292.262 393.094L289.514 394.731C289.91 394.69 290.291 394.702 290.658 394.765C291.026 394.829 291.356 394.945 291.65 395.115C292.167 395.413 292.414 395.736 292.393 396.083C292.371 396.43 292.043 396.793 291.406 397.172L289.091 398.551L289.693 399.044L289.136 399.375L286.807 398.03L287.364 397.698L288.213 398.044L290.538 396.66C290.933 396.425 291.138 396.202 291.154 395.99C291.174 395.78 291.014 395.577 290.676 395.382C290.435 395.243 290.158 395.15 289.844 395.103C289.536 395.057 289.221 395.055 288.899 395.097L286.049 396.794L286.651 397.287L286.094 397.618L283.765 396.273ZM287.722 400.824C287.654 400.785 287.573 400.728 287.481 400.654C287.386 400.582 287.316 400.524 287.272 400.481L288.046 400.125C288.09 400.157 288.156 400.2 288.242 400.253C288.325 400.308 288.383 400.345 288.415 400.364C288.603 400.472 288.825 400.518 289.082 400.5C289.342 400.485 289.645 400.433 289.99 400.346L290.703 400.167L293.05 396.769L292.604 396.428L293.166 396.094L295.187 397.262L294.626 397.597L293.954 397.312L292.503 399.278L292.107 399.781L292.134 399.796L296.261 398.645L295.735 398.237L296.296 397.903L298.278 399.048L297.717 399.382L297.147 399.136L290.367 400.947C290.048 401.033 289.735 401.092 289.428 401.125C289.12 401.162 288.823 401.158 288.536 401.113C288.251 401.07 287.98 400.973 287.722 400.824ZM294.58 402.63C294.078 402.34 293.817 402.047 293.798 401.753C293.781 401.456 293.994 401.176 294.436 400.913C294.739 400.733 295.086 400.624 295.476 400.586C295.872 400.549 296.291 400.585 296.732 400.695C297.177 400.803 297.62 400.985 298.062 401.241L298.922 401.737L299.39 401.458C299.679 401.287 299.814 401.102 299.795 400.904C299.779 400.708 299.61 400.518 299.29 400.332C299.088 400.216 298.888 400.13 298.689 400.074C298.494 400.016 298.292 399.977 298.085 399.958L297.324 400.301L296.647 399.91L297.743 399.258C298.134 399.279 298.517 399.347 298.894 399.461C299.273 399.573 299.638 399.73 299.988 399.932C300.573 400.27 300.893 400.618 300.949 400.975C301.004 401.332 300.774 401.664 300.259 401.971L297.956 403.341C297.894 403.378 297.834 403.414 297.775 403.449C297.719 403.486 297.665 403.524 297.612 403.562L298.031 403.861L297.474 404.193L296.214 403.465C296.316 403.372 296.412 403.291 296.5 403.221C296.589 403.151 296.681 403.083 296.779 403.019C296.394 403.049 296.002 403.033 295.603 402.972C295.209 402.91 294.868 402.796 294.58 402.63ZM295.438 402.27C295.729 402.438 296.064 402.551 296.443 402.607C296.822 402.664 297.161 402.664 297.459 402.608L298.325 402.093L297.435 401.578C297.031 401.345 296.632 401.227 296.239 401.224C295.845 401.221 295.531 401.29 295.295 401.431C295.086 401.555 294.991 401.689 295.009 401.831C295.031 401.971 295.174 402.118 295.438 402.27Z" fill="url(#paint14_linear_1_1614)"/>
</g>
</g>
</g>
<rect x="0.00411251" y="0.628115" width="113.24" height="184.792" rx="9.91234" transform="matrix(0.865874 0.500262 -0.859249 0.511557 303.253 353.839)" stroke="url(#paint15_linear_1_1614)" stroke-width="1.24156" shape-rendering="crispEdges"/>
</g>
<g filter="url(#filter8_bdi_1_1614)">
<g clip-path="url(#clip4_1_1614)">
<rect width="114.481" height="186.034" rx="10.5331" transform="matrix(0.865874 0.500262 -0.859249 0.511557 97.4455 326.809)" fill="url(#paint16_linear_1_1614)" shape-rendering="crispEdges"/>
<g clip-path="url(#clip5_1_1614)">
<path d="M82.9646 335.43C88.0334 332.412 90.5678 330.903 93.4979 330.325C96.0752 329.816 98.855 329.798 101.439 330.273C104.376 330.813 106.93 332.288 112.038 335.24L182.393 375.887C187.501 378.838 190.055 380.314 191.019 382.028C191.868 383.536 191.878 385.167 191.05 386.686C190.108 388.413 187.573 389.922 182.505 392.939L73.5125 457.828L-26.0276 400.319L82.9646 335.43Z" fill="url(#paint17_linear_1_1614)"/>
<g filter="url(#filter9_i_1_1614)">
<g filter="url(#filter10_i_1_1614)">
<rect width="18.3934" height="14.3699" rx="2.87398" transform="matrix(0.865874 0.500262 -0.859249 0.511557 15.5883 395.394)" fill="url(#paint18_linear_1_1614)"/>
</g>
<rect x="0.000588362" y="0.0898622" width="18.2158" height="14.1923" rx="2.78516" transform="matrix(0.865874 0.500262 -0.859249 0.511557 15.6656 395.437)" stroke="url(#paint19_linear_1_1614)" stroke-width="0.177625"/>
<path fill-rule="evenodd" clip-rule="evenodd" d="M22.8221 402.18L26.5549 404.337C27.1046 404.655 27.108 405.175 26.5625 405.5C26.0169 405.825 25.129 405.831 24.5793 405.513L20.8465 403.357C20.2968 403.039 20.2934 402.518 20.8389 402.193C21.3845 401.869 22.2724 401.863 22.8221 402.18ZM20.5901 402.05C21.272 401.644 22.3819 401.636 23.0691 402.033L26.8018 404.19C27.489 404.587 27.4933 405.238 26.8113 405.644C26.1294 406.05 25.0195 406.057 24.3323 405.66L20.5996 403.504C19.9124 403.107 19.9082 402.456 20.5901 402.05ZM16.1035 398.299L19.8363 400.456C20.386 400.773 20.3894 401.294 19.8439 401.619C19.2984 401.943 18.4105 401.949 17.8607 401.632L14.128 399.475C13.5782 399.157 13.5748 398.637 14.1204 398.312C14.6659 397.987 15.5538 397.981 16.1035 398.299ZM13.8715 398.168C14.5534 397.762 15.6633 397.755 16.3505 398.152L20.0832 400.308C20.7704 400.706 20.7747 401.356 20.0928 401.762C19.4108 402.168 18.301 402.176 17.6138 401.779L13.881 399.622C13.1938 399.225 13.1896 398.574 13.8715 398.168ZM16.8725 402.219L13.1398 400.063C12.59 399.745 11.7021 399.751 11.1566 400.076C10.6111 400.401 10.6145 400.921 11.1642 401.239L14.897 403.396C15.4467 403.713 16.3346 403.707 16.8802 403.383C17.4257 403.058 17.4223 402.537 16.8725 402.219ZM13.3867 399.916C12.6995 399.519 11.5897 399.526 10.9077 399.932C10.2258 400.338 10.2301 400.989 10.9173 401.386L14.65 403.543C15.3372 403.94 16.4471 403.932 17.129 403.526C17.8109 403.12 17.8067 402.469 17.1195 402.072L13.3867 399.916ZM19.8586 403.945L23.5913 406.101C24.1411 406.419 24.1445 406.94 23.5989 407.264C23.0534 407.589 22.1655 407.595 21.6157 407.277L17.883 405.121C17.3332 404.803 17.3298 404.282 17.8754 403.958C18.4209 403.633 19.3088 403.627 19.8586 403.945ZM17.6265 403.814C18.3084 403.408 19.4183 403.401 20.1055 403.798L23.8383 405.954C24.5254 406.351 24.5297 407.002 23.8478 407.408C23.1659 407.814 22.056 407.821 21.3688 407.424L17.636 405.268C16.9489 404.871 16.9446 404.22 17.6265 403.814ZM13.909 403.984L10.1762 401.827C9.62649 401.51 8.73859 401.516 8.19305 401.84C7.64751 402.165 7.65092 402.686 8.20067 403.003L11.9334 405.16C12.4832 405.478 13.3711 405.472 13.9166 405.147C14.4621 404.822 14.4587 404.302 13.909 403.984ZM10.4232 401.68C9.736 401.283 8.62612 401.291 7.9442 401.697C7.26228 402.103 7.26654 402.753 7.95372 403.151L11.6865 405.307C12.3737 405.704 13.4835 405.697 14.1655 405.291C14.8474 404.885 14.8431 404.234 14.1559 403.837L10.4232 401.68ZM16.8953 405.709L20.6281 407.865C21.1778 408.183 21.1812 408.704 20.6357 409.029C20.0901 409.353 19.2022 409.359 18.6525 409.042L14.9197 406.885C14.37 406.567 14.3666 406.047 14.9121 405.722C15.4577 405.397 16.3456 405.391 16.8953 405.709ZM14.6633 405.578C15.3452 405.172 16.4551 405.165 17.1423 405.562L20.875 407.718C21.5622 408.115 21.5665 408.766 20.8845 409.172C20.2026 409.578 19.0927 409.586 18.4056 409.189L14.6728 407.032C13.9856 406.635 13.9814 405.984 14.6633 405.578Z" fill="url(#paint20_linear_1_1614)"/>
</g>
<g filter="url(#filter11_i_1_1614)">
<path d="M154.372 379.81C154.393 379.722 154.442 379.638 154.519 379.561C154.595 379.485 154.696 379.419 154.817 379.366C155.061 379.259 155.369 379.214 155.672 379.241C155.976 379.268 156.251 379.364 156.437 379.508C156.623 379.653 156.704 379.834 156.663 380.012C156.57 380.426 156.366 380.829 156.058 381.204C155.739 381.594 155.312 381.949 154.795 382.256C154.28 382.563 153.682 382.818 153.024 383.011C152.389 383.197 151.705 383.323 151 383.383C150.697 383.41 150.388 383.365 150.138 383.258C149.889 383.151 149.721 382.992 149.671 382.814C149.621 382.636 149.693 382.455 149.871 382.311C150.049 382.166 150.32 382.07 150.622 382.043C151.086 382.004 151.536 381.923 151.954 381.802C152.396 381.675 152.798 381.507 153.144 381.303C153.488 381.1 153.772 380.865 153.985 380.607C154.186 380.356 154.317 380.087 154.372 379.81ZM158.711 380.558C158.342 381.535 157.512 382.428 156.315 383.135C155.131 383.847 153.626 384.348 151.969 384.581C151.822 384.601 151.684 384.638 151.562 384.69C151.44 384.742 151.338 384.808 151.26 384.884C151.182 384.96 151.131 385.044 151.109 385.132C151.086 385.22 151.094 385.309 151.131 385.396C151.168 385.483 151.234 385.564 151.325 385.637C151.415 385.709 151.529 385.77 151.659 385.817C151.79 385.864 151.934 385.895 152.084 385.909C152.234 385.923 152.388 385.92 152.535 385.9C154.607 385.609 156.49 384.983 157.97 384.091C159.47 383.209 160.511 382.095 160.976 380.874C161.009 380.787 161.012 380.698 160.985 380.61C160.959 380.522 160.903 380.438 160.822 380.362C160.74 380.286 160.634 380.221 160.509 380.169C160.385 380.116 160.245 380.079 160.096 380.059C159.948 380.038 159.795 380.035 159.645 380.049C159.496 380.064 159.353 380.095 159.225 380.142C159.097 380.188 158.987 380.25 158.9 380.322C158.813 380.394 158.751 380.476 158.719 380.562L158.711 380.558ZM163.247 381.401C162.654 382.806 161.432 384.087 159.706 385.113C157.984 386.139 155.82 386.874 153.436 387.242C153.29 387.265 153.153 387.304 153.033 387.358C152.913 387.411 152.813 387.479 152.739 387.555C152.664 387.632 152.616 387.717 152.597 387.805C152.578 387.894 152.59 387.983 152.63 388.069C152.671 388.156 152.74 388.236 152.833 388.307C152.927 388.378 153.043 388.438 153.175 388.483C153.307 388.528 153.452 388.558 153.603 388.57C153.754 388.582 153.907 388.577 154.053 388.554C156.833 388.128 159.356 387.271 161.361 386.073C163.384 384.877 164.816 383.381 165.509 381.739C165.581 381.564 165.531 381.378 165.369 381.222C165.208 381.067 164.949 380.954 164.649 380.909C164.349 380.865 164.033 380.891 163.77 380.984C163.507 381.076 163.319 381.226 163.247 381.401ZM167.791 382.226C166.981 384.06 165.364 385.732 163.101 387.074C160.847 388.42 158.024 389.393 154.911 389.895C154.766 389.919 154.63 389.959 154.513 390.014C154.395 390.068 154.298 390.136 154.225 390.214C154.153 390.291 154.108 390.376 154.092 390.464C154.076 390.552 154.09 390.641 154.133 390.726C154.176 390.812 154.247 390.892 154.342 390.961C154.437 391.031 154.554 391.09 154.687 391.133C154.82 391.177 154.965 391.204 155.116 391.215C155.266 391.226 155.418 391.219 155.563 391.195C159.063 390.63 162.236 389.537 164.771 388.025C167.322 386.514 169.144 384.632 170.057 382.566C170.135 382.393 170.092 382.209 169.938 382.053C169.785 381.897 169.532 381.782 169.237 381.734C168.942 381.686 168.628 381.708 168.364 381.796C168.1 381.884 167.908 382.03 167.831 382.203" fill="url(#paint21_linear_1_1614)"/>
</g>
<g filter="url(#filter12_i_1_1614)">
<path d="M62.9979 360.7C62.603 360.472 62.2805 360.218 62.0302 359.939C61.7799 359.66 61.6079 359.353 61.514 359.019L62.8884 358.201L63.5697 358.594L62.7047 359.282C62.7798 359.463 62.8978 359.639 63.0586 359.807C63.2194 359.976 63.4305 360.136 63.6917 360.287C63.9886 360.459 64.2837 360.577 64.5769 360.643C64.876 360.709 65.1601 360.726 65.429 360.695C65.698 360.664 65.9385 360.585 66.1506 360.459C66.348 360.341 66.4743 360.21 66.5296 360.066C66.5848 359.921 66.5586 359.752 66.4509 359.559C66.349 359.365 66.1523 359.134 65.8607 358.865C65.5185 358.547 65.2784 358.247 65.1406 357.967C65.0086 357.687 64.9847 357.428 65.0689 357.19C65.159 356.951 65.3632 356.738 65.6814 356.548C66.0172 356.348 66.4068 356.221 66.8501 356.166C67.2964 356.113 67.7564 356.133 68.2302 356.227C68.7041 356.321 69.1548 356.492 69.5823 356.739C70.0365 357.001 70.3681 357.274 70.577 357.557C70.7918 357.84 70.9148 358.105 70.9459 358.351L69.6599 359.116L68.9786 358.723L69.7508 358.091C69.7233 357.95 69.6454 357.802 69.5172 357.645C69.389 357.487 69.178 357.324 68.884 357.154C68.6346 357.01 68.3708 356.91 68.0924 356.852C67.8169 356.793 67.5477 356.78 67.2847 356.811C67.0216 356.842 66.7841 356.921 66.5719 357.047C66.3863 357.158 66.2718 357.282 66.2283 357.419C66.1878 357.558 66.2229 357.722 66.3336 357.91C66.4502 358.098 66.6454 358.325 66.9192 358.59C67.4341 359.085 67.7018 359.532 67.7221 359.93C67.7484 360.329 67.5199 360.673 67.0368 360.96C66.6921 361.165 66.2921 361.294 65.837 361.345C65.3848 361.395 64.9129 361.366 64.4212 361.258C63.9325 361.152 63.4581 360.966 62.9979 360.7ZM65.3314 361.94L65.8882 361.608L66.7379 361.954L70.1539 359.92L69.5518 359.427L70.113 359.093L71.7162 360.019L67.6152 362.461L68.2173 362.954L67.6605 363.285L65.3314 361.94ZM71.9743 358.784L72.9068 358.229L73.8286 358.762L72.8961 359.317L71.9743 358.784ZM67.5365 363.214L68.0933 362.882L68.943 363.228L72.359 361.194L71.7569 360.701L72.3181 360.367L73.8278 361.239L73.1786 361.699C73.5923 361.641 73.9886 361.64 74.3676 361.696C74.7525 361.753 75.0993 361.87 75.408 362.048C75.9276 362.349 76.1781 362.671 76.1597 363.017C76.1442 363.36 75.8212 363.72 75.1907 364.095L72.853 365.487L73.4551 365.98L72.8983 366.311L70.5692 364.966L71.126 364.634L71.9757 364.98L74.2958 363.599C74.7171 363.348 74.9315 363.121 74.939 362.918C74.9495 362.717 74.7826 362.517 74.4382 362.318C74.1859 362.172 73.9013 362.078 73.5846 362.037C73.2708 361.997 72.9514 362.006 72.6265 362.064L69.8203 363.735L70.4224 364.228L69.8656 364.559L67.5365 363.214ZM72.9317 368.596C72.7001 368.463 72.4817 368.298 72.2763 368.104C72.068 367.911 71.916 367.723 71.8201 367.539L72.7234 367.268C72.8012 367.413 72.9235 367.567 73.0902 367.729C73.2569 367.891 73.4456 368.033 73.6564 368.154C74.0483 368.381 74.4438 368.481 74.8429 368.456C75.245 368.433 75.6478 368.301 76.0515 368.061L76.5066 367.79C76.149 367.818 75.8087 367.799 75.4859 367.734C75.1631 367.668 74.8592 367.553 74.5742 367.389C74.1823 367.162 73.9396 366.91 73.8461 366.631C73.7555 366.351 73.8054 366.063 73.9957 365.769C74.1919 365.474 74.5184 365.191 74.975 364.919L75.0678 364.864C75.5804 364.559 76.1054 364.335 76.6428 364.193C77.1831 364.052 77.7019 364.001 78.199 364.039C78.6991 364.076 79.148 364.209 79.5459 364.439C79.8487 364.614 80.0555 364.803 80.1662 365.005C80.277 365.207 80.2976 365.42 80.2281 365.642L80.9092 365.331L81.6485 365.758L76.9288 368.568C76.5163 368.813 76.0826 368.979 75.6277 369.065C75.1758 369.153 74.7203 369.158 74.2614 369.079C73.8024 369.004 73.3592 368.843 72.9317 368.596ZM75.4994 367.094C75.7637 367.246 76.0438 367.339 76.3398 367.372C76.6387 367.403 76.955 367.387 77.2888 367.324L79.4896 366.014C79.5801 365.828 79.5937 365.647 79.5304 365.472C79.4701 365.296 79.3123 365.134 79.057 364.986C78.7779 364.825 78.4653 364.738 78.1192 364.724C77.776 364.713 77.4185 364.764 77.0466 364.877C76.6776 364.989 76.3104 365.153 75.9451 365.371L75.8523 365.426C75.3721 365.712 75.0886 366.001 75.0018 366.293C74.9149 366.585 75.0808 366.852 75.4994 367.094ZM80.8034 366.104L81.172 365.482L82.2452 366.102L81.6884 366.434L80.8034 366.104ZM77.0635 368.718L77.6204 368.386L78.47 368.732L83.9984 365.441L83.3963 364.948L83.9575 364.614L85.5607 365.54L82.812 367.176C83.208 367.136 83.5896 367.147 83.9568 367.21C84.324 367.274 84.6545 367.391 84.9484 367.56C85.465 367.859 85.7126 368.182 85.6912 368.529C85.6698 368.876 85.3409 369.239 84.7046 369.618L82.3889 370.996L82.991 371.489L82.4342 371.821L80.1052 370.475L80.662 370.144L81.5116 370.489L83.8361 369.106C84.2309 368.871 84.4365 368.647 84.4528 368.435C84.4722 368.225 84.3126 368.023 83.9741 367.827C83.7337 367.688 83.4565 367.595 83.1427 367.549C82.8348 367.502 82.5198 367.5 82.1977 367.542L79.3473 369.239L79.9494 369.732L79.3926 370.064L77.0635 368.718Z" fill="url(#paint22_linear_1_1614)"/>
</g>
</g>
</g>
<rect x="0.00411251" y="0.628115" width="113.24" height="184.792" rx="9.91234" transform="matrix(0.865874 0.500262 -0.859249 0.511557 97.9858 327.113)" stroke="url(#paint23_linear_1_1614)" stroke-width="1.24156" shape-rendering="crispEdges"/>
</g>
<g filter="url(#filter13_bdi_1_1614)">
<g clip-path="url(#clip6_1_1614)">
<rect width="114.481" height="186.034" rx="10.5331" transform="matrix(0.865874 0.500262 -0.859249 0.511557 347.734 478.767)" fill="url(#paint24_linear_1_1614)" shape-rendering="crispEdges"/>
<g clip-path="url(#clip7_1_1614)">
<path d="M333.254 487.388C338.322 484.37 340.857 482.861 343.787 482.283C346.364 481.774 349.144 481.756 351.728 482.231C354.665 482.771 357.219 484.246 362.327 487.198L432.682 527.845C437.79 530.796 440.344 532.272 441.308 533.986C442.157 535.494 442.167 537.125 441.339 538.644C440.397 540.371 437.862 541.88 432.794 544.897L323.801 609.786L224.261 552.277L333.254 487.388Z" fill="url(#paint25_linear_1_1614)"/>
<g filter="url(#filter14_i_1_1614)">
<g filter="url(#filter15_i_1_1614)">
<rect width="18.3934" height="14.3699" rx="2.87398" transform="matrix(0.865874 0.500262 -0.859249 0.511557 265.878 547.352)" fill="url(#paint26_linear_1_1614)"/>
</g>
<rect x="0.000588362" y="0.0898622" width="18.2158" height="14.1923" rx="2.78516" transform="matrix(0.865874 0.500262 -0.859249 0.511557 265.955 547.395)" stroke="url(#paint27_linear_1_1614)" stroke-width="0.177625"/>
<path fill-rule="evenodd" clip-rule="evenodd" d="M273.111 554.138L276.844 556.295C277.393 556.612 277.397 557.133 276.851 557.458C276.306 557.782 275.418 557.788 274.868 557.471L271.135 555.314C270.586 554.996 270.582 554.476 271.128 554.151C271.673 553.826 272.561 553.82 273.111 554.138ZM270.879 554.007C271.561 553.601 272.671 553.594 273.358 553.991L277.091 556.147C277.778 556.545 277.782 557.195 277.1 557.601C276.418 558.007 275.308 558.015 274.621 557.618L270.888 555.461C270.201 555.064 270.197 554.413 270.879 554.007ZM266.392 550.257L270.125 552.414C270.674 552.731 270.678 553.252 270.132 553.577C269.587 553.902 268.699 553.908 268.149 553.59L264.416 551.433C263.867 551.116 263.863 550.595 264.409 550.27C264.954 549.945 265.842 549.94 266.392 550.257ZM264.16 550.126C264.842 549.72 265.952 549.713 266.639 550.11L270.372 552.267C271.059 552.664 271.063 553.315 270.381 553.721C269.699 554.127 268.589 554.134 267.902 553.737L264.169 551.58C263.482 551.183 263.478 550.532 264.16 550.126ZM267.161 554.177L263.429 552.021C262.879 551.703 261.991 551.709 261.445 552.034C260.9 552.358 260.903 552.879 261.453 553.197L265.186 555.353C265.736 555.671 266.623 555.665 267.169 555.34C267.715 555.016 267.711 554.495 267.161 554.177ZM263.676 551.874C262.988 551.477 261.879 551.484 261.197 551.89C260.515 552.296 260.519 552.947 261.206 553.344L264.939 555.5C265.626 555.897 266.736 555.89 267.418 555.484C268.1 555.078 268.096 554.427 267.408 554.03L263.676 551.874ZM270.147 555.902L273.88 558.059C274.43 558.376 274.433 558.897 273.888 559.222C273.342 559.547 272.454 559.553 271.904 559.235L268.172 557.078C267.622 556.761 267.618 556.24 268.164 555.915C268.71 555.59 269.597 555.585 270.147 555.902ZM267.915 555.771C268.597 555.365 269.707 555.358 270.394 555.755L274.127 557.912C274.814 558.309 274.818 558.96 274.136 559.366C273.454 559.772 272.345 559.779 271.657 559.382L267.925 557.225C267.237 556.828 267.233 556.177 267.915 555.771ZM264.198 555.941L260.465 553.785C259.915 553.467 259.027 553.473 258.482 553.798C257.936 554.123 257.94 554.643 258.489 554.961L262.222 557.118C262.772 557.435 263.66 557.429 264.205 557.105C264.751 556.78 264.747 556.259 264.198 555.941ZM260.712 553.638C260.025 553.241 258.915 553.248 258.233 553.654C257.551 554.06 257.555 554.711 258.242 555.108L261.975 557.265C262.662 557.662 263.772 557.654 264.454 557.248C265.136 556.842 265.132 556.191 264.445 555.794L260.712 553.638ZM267.184 557.667L270.917 559.823C271.467 560.141 271.47 560.662 270.925 560.986C270.379 561.311 269.491 561.317 268.941 560.999L265.209 558.843C264.659 558.525 264.655 558.004 265.201 557.68C265.747 557.355 266.634 557.349 267.184 557.667ZM264.952 557.536C265.634 557.13 266.744 557.123 267.431 557.52L271.164 559.676C271.851 560.073 271.855 560.724 271.173 561.13C270.491 561.536 269.382 561.544 268.694 561.147L264.962 558.99C264.275 558.593 264.27 557.942 264.952 557.536Z" fill="url(#paint28_linear_1_1614)"/>
</g>
<g filter="url(#filter16_i_1_1614)">
<path d="M310.993 511.224L311.55 510.893L312.097 511.131L320.175 508.981L320.928 509.416L317.343 514.162L317.753 514.477L317.196 514.808L315.335 513.733L315.892 513.401L316.465 513.634L317.222 512.682L314.626 511.182L313.001 511.632L313.407 511.965L312.85 512.297L310.993 511.224ZM315.627 510.905L317.684 512.094L319.347 509.985L319.44 509.868L319.413 509.852L319.214 509.908L315.627 510.905ZM317.112 514.76L317.669 514.428L318.519 514.774L321.935 512.74L321.333 512.247L321.894 511.913L323.404 512.785L322.755 513.245C323.168 513.187 323.565 513.186 323.943 513.242C324.328 513.299 324.675 513.416 324.984 513.594C325.503 513.895 325.754 514.217 325.736 514.563C325.72 514.906 325.397 515.266 324.767 515.641L322.429 517.033L323.031 517.526L322.474 517.857L320.145 516.512L320.702 516.18L321.552 516.526L323.872 515.145C324.293 514.894 324.507 514.667 324.515 514.464C324.525 514.263 324.358 514.063 324.014 513.864C323.762 513.718 323.477 513.624 323.16 513.583C322.847 513.543 322.527 513.552 322.202 513.61L319.396 515.281L319.998 515.774L319.441 516.105L317.112 514.76ZM322.508 520.142C322.276 520.008 322.058 519.844 321.852 519.65C321.644 519.457 321.492 519.269 321.396 519.085L322.299 518.814C322.377 518.959 322.499 519.113 322.666 519.275C322.833 519.437 323.021 519.579 323.232 519.7C323.624 519.927 324.02 520.027 324.419 520.002C324.821 519.979 325.224 519.847 325.627 519.607L326.083 519.336C325.725 519.364 325.385 519.345 325.062 519.28C324.739 519.214 324.435 519.099 324.15 518.935C323.758 518.708 323.515 518.456 323.422 518.177C323.331 517.896 323.381 517.609 323.572 517.315C323.768 517.02 324.094 516.737 324.551 516.465L324.644 516.41C325.156 516.105 325.681 515.881 326.219 515.739C326.759 515.598 327.278 515.547 327.775 515.585C328.275 515.622 328.724 515.755 329.122 515.985C329.425 516.16 329.631 516.349 329.742 516.551C329.853 516.753 329.873 516.965 329.804 517.188L330.485 516.876L331.224 517.304L326.505 520.113C326.092 520.359 325.658 520.525 325.204 520.611C324.752 520.699 324.296 520.704 323.837 520.625C323.378 520.55 322.935 520.389 322.508 520.142ZM325.075 518.64C325.34 518.792 325.62 518.885 325.916 518.918C326.215 518.949 326.531 518.933 326.865 518.87L329.066 517.56C329.156 517.373 329.17 517.193 329.106 517.018C329.046 516.842 328.888 516.68 328.633 516.532C328.354 516.371 328.041 516.284 327.695 516.27C327.352 516.259 326.994 516.31 326.622 516.423C326.253 516.535 325.886 516.699 325.521 516.917L325.428 516.972C324.948 517.258 324.664 517.547 324.578 517.839C324.491 518.131 324.657 518.398 325.075 518.64ZM330.379 517.65L330.748 517.028L331.821 517.648L331.264 517.98L330.379 517.65ZM328.217 521.284C327.715 520.994 327.454 520.702 327.434 520.407C327.418 520.111 327.63 519.831 328.072 519.568C328.376 519.387 328.723 519.278 329.113 519.241C329.509 519.203 329.928 519.24 330.369 519.35C330.813 519.458 331.257 519.64 331.699 519.895L332.558 520.392L333.027 520.113C333.316 519.941 333.45 519.756 333.431 519.559C333.415 519.363 333.247 519.172 332.926 518.987C332.725 518.87 332.524 518.784 332.326 518.728C332.13 518.67 331.929 518.632 331.722 518.612L330.961 518.955L330.284 518.564L331.38 517.912C331.77 517.934 332.154 518.001 332.53 518.115C332.91 518.227 333.274 518.384 333.625 518.587C334.21 518.925 334.53 519.272 334.585 519.629C334.641 519.986 334.411 520.318 333.895 520.625L331.593 521.996C331.531 522.033 331.471 522.068 331.412 522.104C331.356 522.14 331.301 522.178 331.248 522.217L331.667 522.516L331.111 522.847L329.85 522.119C329.953 522.026 330.049 521.945 330.137 521.875C330.225 521.805 330.318 521.738 330.415 521.673C330.031 521.703 329.639 521.688 329.239 521.626C328.845 521.564 328.505 521.45 328.217 521.284ZM329.075 520.925C329.366 521.093 329.701 521.205 330.08 521.261C330.459 521.318 330.797 521.318 331.096 521.263L331.962 520.747L331.071 520.232C330.667 519.999 330.269 519.881 329.876 519.878C329.482 519.876 329.168 519.945 328.932 520.085C328.723 520.21 328.627 520.343 328.646 520.485C328.668 520.625 328.811 520.772 329.075 520.925ZM332.862 523.968C332.47 523.742 332.229 523.49 332.138 523.213C332.054 522.936 332.11 522.652 332.306 522.361C332.502 522.07 332.83 521.788 333.29 521.514L333.383 521.459C333.895 521.154 334.419 520.929 334.953 520.785C335.487 520.641 336.002 520.587 336.496 520.624C336.993 520.659 337.439 520.79 337.834 521.019C338.119 521.183 338.317 521.36 338.427 521.548C338.544 521.736 338.581 521.934 338.538 522.141L340.487 520.98L339.884 520.487L340.446 520.153L341.172 520.573L342.049 521.079L335.835 524.779L336.438 525.272L335.881 525.603L334.393 524.744L334.892 524.363C334.517 524.402 334.159 524.389 333.818 524.323C333.481 524.26 333.162 524.141 332.862 523.968ZM333.792 523.676C334.053 523.827 334.332 523.918 334.628 523.951C334.924 523.984 335.237 523.97 335.568 523.909L337.786 522.588C337.874 522.403 337.886 522.224 337.823 522.049C337.76 521.874 337.602 521.714 337.349 521.568C337.07 521.407 336.761 521.321 336.421 521.311C336.083 521.3 335.73 521.351 335.361 521.467C334.995 521.58 334.628 521.746 334.26 521.966L334.167 522.021C333.687 522.307 333.4 522.594 333.308 522.883C333.215 523.171 333.376 523.436 333.792 523.676Z" fill="url(#paint29_linear_1_1614)"/>
</g>
</g>
</g>
<rect x="0.00154219" y="0.235543" width="114.016" height="185.568" rx="10.3003" transform="matrix(0.865874 0.500262 -0.859249 0.511557 347.937 478.881)" stroke="url(#paint30_linear_1_1614)" stroke-width="0.465584" shape-rendering="crispEdges"/>
</g>
</g>
<defs>
<filter id="filter0_f_1_1614" x="-240.597" y="168.423" width="866.366" height="866.57" filterUnits="userSpaceOnUse" color-interpolation-filters="sRGB">
<feFlood flood-opacity="0" result="BackgroundImageFix"/>
<feBlend mode="normal" in="SourceGraphic" in2="BackgroundImageFix" result="shape"/>
<feGaussianBlur stdDeviation="143.459" result="effect1_foregroundBlur_1_1614"/>
</filter>
<filter id="filter1_bdi_1_1614" x="-65.8614" y="467.676" width="273.226" height="163.355" filterUnits="userSpaceOnUse" color-interpolation-filters="sRGB">
<feFlood flood-opacity="0" result="BackgroundImageFix"/>
<feGaussianBlur in="BackgroundImageFix" stdDeviation="3.25478"/>
<feComposite in2="SourceAlpha" operator="in" result="effect1_backgroundBlur_1_1614"/>
<feColorMatrix in="SourceAlpha" type="matrix" values="0 0 0 0 0 0 0 0 0 0 0 0 0 0 0 0 0 0 127 0" result="hardAlpha"/>
<feOffset dy="0.475164"/>
<feComposite in2="hardAlpha" operator="out"/>
<feColorMatrix type="matrix" values="0 0 0 0 0 0 0 0 0 0 0 0 0 0 0 0 0 0 1 0"/>
<feBlend mode="normal" in2="effect1_backgroundBlur_1_1614" result="effect2_dropShadow_1_1614"/>
<feBlend mode="normal" in="SourceGraphic" in2="effect2_dropShadow_1_1614" result="shape"/>
<feColorMatrix in="SourceAlpha" type="matrix" values="0 0 0 0 0 0 0 0 0 0 0 0 0 0 0 0 0 0 127 0" result="hardAlpha"/>
<feOffset dx="-0.752981" dy="-0.465009"/>
<feGaussianBlur stdDeviation="0.609162"/>
<feComposite in2="hardAlpha" operator="arithmetic" k2="-1" k3="1"/>
<feColorMatrix type="matrix" values="0 0 0 0 0.980392 0 0 0 0 0.980392 0 0 0 0 0.980392 0 0 0 0.22 0"/>
<feBlend mode="normal" in2="shape" result="effect3_innerShadow_1_1614"/>
</filter>
<filter id="filter2_i_1_1614" x="9.06749" y="542.859" width="23.8184" height="13.7607" filterUnits="userSpaceOnUse" color-interpolation-filters="sRGB">
<feFlood flood-opacity="0" result="BackgroundImageFix"/>
<feBlend mode="normal" in="SourceGraphic" in2="BackgroundImageFix" result="shape"/>
<feColorMatrix in="SourceAlpha" type="matrix" values="0 0 0 0 0 0 0 0 0 0 0 0 0 0 0 0 0 0 127 0" result="hardAlpha"/>
<feOffset dx="-0.465584" dy="0.465009"/>
<feComposite in2="hardAlpha" operator="arithmetic" k2="-1" k3="1"/>
<feColorMatrix type="matrix" values="0 0 0 0 0.84 0 0 0 0 0.828 0 0 0 0 0.76 0 0 0 1 0"/>
<feBlend mode="normal" in2="shape" result="effect1_innerShadow_1_1614"/>
</filter>
<filter id="filter3_bdi_1_1614" x="136.354" y="347.025" width="271.995" height="165.457" filterUnits="userSpaceOnUse" color-interpolation-filters="sRGB">
<feFlood flood-opacity="0" result="BackgroundImageFix"/>
<feGaussianBlur in="BackgroundImageFix" stdDeviation="3.25478"/>
<feComposite in2="SourceAlpha" operator="in" result="effect1_backgroundBlur_1_1614"/>
<feColorMatrix in="SourceAlpha" type="matrix" values="0 0 0 0 0 0 0 0 0 0 0 0 0 0 0 0 0 0 127 0" result="hardAlpha"/>
<feOffset dy="0.475164"/>
<feGaussianBlur stdDeviation="0.383197"/>
<feComposite in2="hardAlpha" operator="out"/>
<feColorMatrix type="matrix" values="0 0 0 0 0 0 0 0 0 0 0 0 0 0 0 0 0 0 0.5 0"/>
<feBlend mode="normal" in2="effect1_backgroundBlur_1_1614" result="effect2_dropShadow_1_1614"/>
<feBlend mode="normal" in="SourceGraphic" in2="effect2_dropShadow_1_1614" result="shape"/>
<feColorMatrix in="SourceAlpha" type="matrix" values="0 0 0 0 0 0 0 0 0 0 0 0 0 0 0 0 0 0 127 0" result="hardAlpha"/>
<feOffset dx="0.752981" dy="-0.465009"/>
<feGaussianBlur stdDeviation="0.609162"/>
<feComposite in2="hardAlpha" operator="arithmetic" k2="-1" k3="1"/>
<feColorMatrix type="matrix" values="0 0 0 0 0.980392 0 0 0 0 0.980392 0 0 0 0 0.980392 0 0 0 0.22 0"/>
<feBlend mode="normal" in2="shape" result="effect3_innerShadow_1_1614"/>
</filter>
<filter id="filter4_i_1_1614" x="208.044" y="422.12" width="28.7387" height="17.3057" filterUnits="userSpaceOnUse" color-interpolation-filters="sRGB">
<feFlood flood-opacity="0" result="BackgroundImageFix"/>
<feBlend mode="normal" in="SourceGraphic" in2="BackgroundImageFix" result="shape"/>
<feColorMatrix in="SourceAlpha" type="matrix" values="0 0 0 0 0 0 0 0 0 0 0 0 0 0 0 0 0 0 127 0" result="hardAlpha"/>
<feOffset dx="-0.465009" dy="0.752981"/>
<feGaussianBlur stdDeviation="0.98582"/>
<feComposite in2="hardAlpha" operator="arithmetic" k2="-1" k3="1"/>
<feColorMatrix type="matrix" values="0 0 0 0 0.24 0 0 0 0 0.228 0 0 0 0 0.16 0 0 0 0.5 0"/>
<feBlend mode="normal" in2="shape" result="effect1_innerShadow_1_1614"/>
</filter>
<filter id="filter5_i_1_1614" x="209.961" y="422.219" width="26.5878" height="15.602" filterUnits="userSpaceOnUse" color-interpolation-filters="sRGB">
<feFlood flood-opacity="0" result="BackgroundImageFix"/>
<feBlend mode="normal" in="SourceGraphic" in2="BackgroundImageFix" result="shape"/>
<feColorMatrix in="SourceAlpha" type="matrix" values="0 0 0 0 0 0 0 0 0 0 0 0 0 0 0 0 0 0 127 0" result="hardAlpha"/>
<feOffset dx="1.21857" dy="-0.752385"/>
<feGaussianBlur stdDeviation="0.609162"/>
<feComposite in2="hardAlpha" operator="arithmetic" k2="-1" k3="1"/>
<feColorMatrix type="matrix" values="0 0 0 0 0.48 0 0 0 0 0.456 0 0 0 0 0.32 0 0 0 0.14 0"/>
<feBlend mode="normal" in2="shape" result="effect1_innerShadow_1_1614"/>
</filter>
<filter id="filter6_i_1_1614" x="354.923" y="405.959" width="20.4401" height="11.9863" filterUnits="userSpaceOnUse" color-interpolation-filters="sRGB">
<feFlood flood-opacity="0" result="BackgroundImageFix"/>
<feBlend mode="normal" in="SourceGraphic" in2="BackgroundImageFix" result="shape"/>
<feColorMatrix in="SourceAlpha" type="matrix" values="0 0 0 0 0 0 0 0 0 0 0 0 0 0 0 0 0 0 127 0" result="hardAlpha"/>
<feOffset dx="-0.178186" dy="0.465584"/>
<feComposite in2="hardAlpha" operator="arithmetic" k2="-1" k3="1"/>
<feColorMatrix type="matrix" values="0 0 0 0 0.68 0 0 0 0 0.656 0 0 0 0 0.52 0 0 0 1 0"/>
<feBlend mode="normal" in2="shape" result="effect1_innerShadow_1_1614"/>
</filter>
<filter id="filter7_i_1_1614" x="264.089" y="381.916" width="40.2787" height="23.4268" filterUnits="userSpaceOnUse" color-interpolation-filters="sRGB">
<feFlood flood-opacity="0" result="BackgroundImageFix"/>
<feBlend mode="normal" in="SourceGraphic" in2="BackgroundImageFix" result="shape"/>
<feColorMatrix in="SourceAlpha" type="matrix" values="0 0 0 0 0 0 0 0 0 0 0 0 0 0 0 0 0 0 127 0" result="hardAlpha"/>
<feOffset dx="-0.178186" dy="0.287398"/>
<feComposite in2="hardAlpha" operator="arithmetic" k2="-1" k3="1"/>
<feColorMatrix type="matrix" values="0 0 0 0 0.68 0 0 0 0 0.656 0 0 0 0 0.52 0 0 0 1 0"/>
<feBlend mode="normal" in2="shape" result="effect1_innerShadow_1_1614"/>
</filter>
<filter id="filter8_bdi_1_1614" x="-68.9136" y="320.299" width="271.995" height="165.457" filterUnits="userSpaceOnUse" color-interpolation-filters="sRGB">
<feFlood flood-opacity="0" result="BackgroundImageFix"/>
<feGaussianBlur in="BackgroundImageFix" stdDeviation="3.25478"/>
<feComposite in2="SourceAlpha" operator="in" result="effect1_backgroundBlur_1_1614"/>
<feColorMatrix in="SourceAlpha" type="matrix" values="0 0 0 0 0 0 0 0 0 0 0 0 0 0 0 0 0 0 127 0" result="hardAlpha"/>
<feOffset dy="0.475164"/>
<feGaussianBlur stdDeviation="0.383197"/>
<feComposite in2="hardAlpha" operator="out"/>
<feColorMatrix type="matrix" values="0 0 0 0 0 0 0 0 0 0 0 0 0 0 0 0 0 0 0.5 0"/>
<feBlend mode="normal" in2="effect1_backgroundBlur_1_1614" result="effect2_dropShadow_1_1614"/>
<feBlend mode="normal" in="SourceGraphic" in2="effect2_dropShadow_1_1614" result="shape"/>
<feColorMatrix in="SourceAlpha" type="matrix" values="0 0 0 0 0 0 0 0 0 0 0 0 0 0 0 0 0 0 127 0" result="hardAlpha"/>
<feOffset dx="0.752981" dy="-0.465009"/>
<feGaussianBlur stdDeviation="0.609162"/>
<feComposite in2="hardAlpha" operator="arithmetic" k2="-1" k3="1"/>
<feColorMatrix type="matrix" values="0 0 0 0 0.980392 0 0 0 0 0.980392 0 0 0 0 0.980392 0 0 0 0.22 0"/>
<feBlend mode="normal" in2="shape" result="effect3_innerShadow_1_1614"/>
</filter>
<filter id="filter9_i_1_1614" x="2.77597" y="395.394" width="28.7387" height="17.3057" filterUnits="userSpaceOnUse" color-interpolation-filters="sRGB">
<feFlood flood-opacity="0" result="BackgroundImageFix"/>
<feBlend mode="normal" in="SourceGraphic" in2="BackgroundImageFix" result="shape"/>
<feColorMatrix in="SourceAlpha" type="matrix" values="0 0 0 0 0 0 0 0 0 0 0 0 0 0 0 0 0 0 127 0" result="hardAlpha"/>
<feOffset dx="-0.465009" dy="0.752981"/>
<feGaussianBlur stdDeviation="0.98582"/>
<feComposite in2="hardAlpha" operator="arithmetic" k2="-1" k3="1"/>
<feColorMatrix type="matrix" values="0 0 0 0 0.24 0 0 0 0 0.228 0 0 0 0 0.16 0 0 0 0.5 0"/>
<feBlend mode="normal" in2="shape" result="effect1_innerShadow_1_1614"/>
</filter>
<filter id="filter10_i_1_1614" x="4.6931" y="395.493" width="26.5878" height="15.602" filterUnits="userSpaceOnUse" color-interpolation-filters="sRGB">
<feFlood flood-opacity="0" result="BackgroundImageFix"/>
<feBlend mode="normal" in="SourceGraphic" in2="BackgroundImageFix" result="shape"/>
<feColorMatrix in="SourceAlpha" type="matrix" values="0 0 0 0 0 0 0 0 0 0 0 0 0 0 0 0 0 0 127 0" result="hardAlpha"/>
<feOffset dx="1.21857" dy="-0.752385"/>
<feGaussianBlur stdDeviation="0.609162"/>
<feComposite in2="hardAlpha" operator="arithmetic" k2="-1" k3="1"/>
<feColorMatrix type="matrix" values="0 0 0 0 0.48 0 0 0 0 0.456 0 0 0 0 0.32 0 0 0 0.14 0"/>
<feBlend mode="normal" in2="shape" result="effect1_innerShadow_1_1614"/>
</filter>
<filter id="filter11_i_1_1614" x="149.655" y="379.233" width="20.4401" height="11.9863" filterUnits="userSpaceOnUse" color-interpolation-filters="sRGB">
<feFlood flood-opacity="0" result="BackgroundImageFix"/>
<feBlend mode="normal" in="SourceGraphic" in2="BackgroundImageFix" result="shape"/>
<feColorMatrix in="SourceAlpha" type="matrix" values="0 0 0 0 0 0 0 0 0 0 0 0 0 0 0 0 0 0 127 0" result="hardAlpha"/>
<feOffset dx="-0.178186" dy="0.465584"/>
<feComposite in2="hardAlpha" operator="arithmetic" k2="-1" k3="1"/>
<feColorMatrix type="matrix" values="0 0 0 0 0.68 0 0 0 0 0.656 0 0 0 0 0.52 0 0 0 1 0"/>
<feBlend mode="normal" in2="shape" result="effect1_innerShadow_1_1614"/>
</filter>
<filter id="filter12_i_1_1614" x="58.9729" y="355.277" width="30.3553" height="17.6934" filterUnits="userSpaceOnUse" color-interpolation-filters="sRGB">
<feFlood flood-opacity="0" result="BackgroundImageFix"/>
<feBlend mode="normal" in="SourceGraphic" in2="BackgroundImageFix" result="shape"/>
<feColorMatrix in="SourceAlpha" type="matrix" values="0 0 0 0 0 0 0 0 0 0 0 0 0 0 0 0 0 0 127 0" result="hardAlpha"/>
<feOffset dx="-0.178186" dy="0.287398"/>
<feComposite in2="hardAlpha" operator="arithmetic" k2="-1" k3="1"/>
<feColorMatrix type="matrix" values="0 0 0 0 0.68 0 0 0 0 0.656 0 0 0 0 0.52 0 0 0 1 0"/>
<feBlend mode="normal" in2="shape" result="effect1_innerShadow_1_1614"/>
</filter>
<filter id="filter13_bdi_1_1614" x="181.375" y="472.257" width="271.995" height="165.457" filterUnits="userSpaceOnUse" color-interpolation-filters="sRGB">
<feFlood flood-opacity="0" result="BackgroundImageFix"/>
<feGaussianBlur in="BackgroundImageFix" stdDeviation="3.25478"/>
<feComposite in2="SourceAlpha" operator="in" result="effect1_backgroundBlur_1_1614"/>
<feColorMatrix in="SourceAlpha" type="matrix" values="0 0 0 0 0 0 0 0 0 0 0 0 0 0 0 0 0 0 127 0" result="hardAlpha"/>
<feOffset dy="0.574795"/>
<feComposite in2="hardAlpha" operator="out"/>
<feColorMatrix type="matrix" values="0 0 0 0 0 0 0 0 0 0 0 0 0 0 0 0 0 0 0.25 0"/>
<feBlend mode="normal" in2="effect1_backgroundBlur_1_1614" result="effect2_dropShadow_1_1614"/>
<feBlend mode="normal" in="SourceGraphic" in2="effect2_dropShadow_1_1614" result="shape"/>
<feColorMatrix in="SourceAlpha" type="matrix" values="0 0 0 0 0 0 0 0 0 0 0 0 0 0 0 0 0 0 127 0" result="hardAlpha"/>
<feOffset dx="0.752981" dy="-0.465009"/>
<feGaussianBlur stdDeviation="0.609162"/>
<feComposite in2="hardAlpha" operator="arithmetic" k2="-1" k3="1"/>
<feColorMatrix type="matrix" values="0 0 0 0 0.980392 0 0 0 0 0.980392 0 0 0 0 0.980392 0 0 0 0.22 0"/>
<feBlend mode="normal" in2="shape" result="effect3_innerShadow_1_1614"/>
</filter>
<filter id="filter14_i_1_1614" x="253.065" y="547.352" width="28.7387" height="17.3057" filterUnits="userSpaceOnUse" color-interpolation-filters="sRGB">
<feFlood flood-opacity="0" result="BackgroundImageFix"/>
<feBlend mode="normal" in="SourceGraphic" in2="BackgroundImageFix" result="shape"/>
<feColorMatrix in="SourceAlpha" type="matrix" values="0 0 0 0 0 0 0 0 0 0 0 0 0 0 0 0 0 0 127 0" result="hardAlpha"/>
<feOffset dx="-0.465009" dy="0.752981"/>
<feGaussianBlur stdDeviation="0.98582"/>
<feComposite in2="hardAlpha" operator="arithmetic" k2="-1" k3="1"/>
<feColorMatrix type="matrix" values="0 0 0 0 0.24 0 0 0 0 0.228 0 0 0 0 0.16 0 0 0 0.5 0"/>
<feBlend mode="normal" in2="shape" result="effect1_innerShadow_1_1614"/>
</filter>
<filter id="filter15_i_1_1614" x="254.982" y="547.451" width="26.5878" height="15.602" filterUnits="userSpaceOnUse" color-interpolation-filters="sRGB">
<feFlood flood-opacity="0" result="BackgroundImageFix"/>
<feBlend mode="normal" in="SourceGraphic" in2="BackgroundImageFix" result="shape"/>
<feColorMatrix in="SourceAlpha" type="matrix" values="0 0 0 0 0 0 0 0 0 0 0 0 0 0 0 0 0 0 127 0" result="hardAlpha"/>
<feOffset dx="1.21857" dy="-0.752385"/>
<feGaussianBlur stdDeviation="0.609162"/>
<feComposite in2="hardAlpha" operator="arithmetic" k2="-1" k3="1"/>
<feColorMatrix type="matrix" values="0 0 0 0 0.48 0 0 0 0 0.456 0 0 0 0 0.32 0 0 0 0.14 0"/>
<feBlend mode="normal" in2="shape" result="effect1_innerShadow_1_1614"/>
</filter>
<filter id="filter16_i_1_1614" x="309.062" y="507.12" width="33.7131" height="19.6333" filterUnits="userSpaceOnUse" color-interpolation-filters="sRGB">
<feFlood flood-opacity="0" result="BackgroundImageFix"/>
<feBlend mode="normal" in="SourceGraphic" in2="BackgroundImageFix" result="shape"/>
<feColorMatrix in="SourceAlpha" type="matrix" values="0 0 0 0 0 0 0 0 0 0 0 0 0 0 0 0 0 0 127 0" result="hardAlpha"/>
<feOffset dx="-0.178186" dy="0.287398"/>
<feComposite in2="hardAlpha" operator="arithmetic" k2="-1" k3="1"/>
<feColorMatrix type="matrix" values="0 0 0 0 0.68 0 0 0 0 0.656 0 0 0 0 0.52 0 0 0 1 0"/>
<feBlend mode="normal" in2="shape" result="effect1_innerShadow_1_1614"/>
</filter>
<linearGradient id="paint0_linear_1_1614" x1="193" y1="0" x2="193" y2="562" gradientUnits="userSpaceOnUse">
<stop stop-color="#1A1A1A"/>
<stop offset="1" stop-color="#323232"/>
</linearGradient>
<linearGradient id="paint1_linear_1_1614" x1="193" y1="0" x2="193" y2="328.5" gradientUnits="userSpaceOnUse">
<stop stop-color="#E7CEC0"/>
<stop offset="1" stop-color="white" stop-opacity="0"/>
</linearGradient>
<linearGradient id="paint2_linear_1_1614" x1="192.905" y1="0" x2="192.905" y2="560.978" gradientUnits="userSpaceOnUse">
<stop stop-color="#1A1A1A"/>
<stop offset="1" stop-color="#323232"/>
</linearGradient>
<linearGradient id="paint3_linear_1_1614" x1="192.905" y1="0" x2="192.905" y2="560.978" gradientUnits="userSpaceOnUse">
<stop stop-color="#1A1A1A"/>
<stop offset="1" stop-color="#323232"/>
</linearGradient>
<linearGradient id="paint4_linear_1_1614" x1="0" y1="0" x2="114.482" y2="186.032" gradientUnits="userSpaceOnUse">
<stop stop-color="#D6D3C2" stop-opacity="0.6"/>
<stop offset="1" stop-color="#5C5C5C" stop-opacity="0.14"/>
</linearGradient>
<linearGradient id="paint5_linear_1_1614" x1="201.269" y1="531.695" x2="32.8635" y2="635.88" gradientUnits="userSpaceOnUse">
<stop stop-color="#262626"/>
<stop offset="1" stop-color="#121212"/>
</linearGradient>
<linearGradient id="paint6_linear_1_1614" x1="114.959" y1="0" x2="106.685" y2="58.2602" gradientUnits="userSpaceOnUse">
<stop stop-opacity="0.5"/>
<stop offset="1" stop-opacity="0.14"/>
</linearGradient>
<linearGradient id="paint7_linear_1_1614" x1="114.959" y1="0" x2="106.685" y2="58.2602" gradientUnits="userSpaceOnUse">
<stop stop-color="#FAFAFA"/>
<stop offset="1" stop-color="#5C5C5C" stop-opacity="0.4"/>
</linearGradient>
<linearGradient id="paint8_linear_1_1614" x1="114.481" y1="0" x2="-0.0013364" y2="186.033" gradientUnits="userSpaceOnUse">
<stop stop-opacity="0.5"/>
<stop offset="1" stop-opacity="0.14"/>
</linearGradient>
<linearGradient id="paint9_linear_1_1614" x1="402.253" y1="411.044" x2="233.778" y2="515.233" gradientUnits="userSpaceOnUse">
<stop stop-color="#FAFAFA"/>
<stop offset="1" stop-color="#DBDBDB"/>
</linearGradient>
<linearGradient id="paint10_linear_1_1614" x1="-1.75176" y1="-2.8924e-07" x2="20.1998" y2="13.8675" gradientUnits="userSpaceOnUse">
<stop stop-color="#D6D3C2"/>
<stop offset="0.212761" stop-color="#B6B5AF"/>
<stop offset="0.548384" stop-color="#E2E0D4"/>
<stop offset="0.914316" stop-color="#9E9D94"/>
<stop offset="1" stop-color="#ADA785"/>
</linearGradient>
<linearGradient id="paint11_linear_1_1614" x1="18.4985" y1="-2.25862e-07" x2="-0.335913" y2="13.9152" gradientUnits="userSpaceOnUse">
<stop stop-color="#D6D3C2"/>
<stop offset="1" stop-color="#3D3A29" stop-opacity="0"/>
</linearGradient>
<linearGradient id="paint12_linear_1_1614" x1="233.314" y1="431.634" x2="213.528" y2="424.718" gradientUnits="userSpaceOnUse">
<stop stop-color="#BAB8AB"/>
<stop offset="1" stop-color="#A3A08F"/>
</linearGradient>
<linearGradient id="paint13_linear_1_1614" x1="377.704" y1="410.188" x2="350.56" y2="415.33" gradientUnits="userSpaceOnUse">
<stop stop-color="#FBFBF9"/>
<stop offset="1" stop-color="#ADA785"/>
</linearGradient>
<linearGradient id="paint14_linear_1_1614" x1="265.491" y1="385.913" x2="287.189" y2="368.913" gradientUnits="userSpaceOnUse">
<stop stop-color="#ADA785"/>
<stop offset="1" stop-color="#D6D3C2"/>
</linearGradient>
<linearGradient id="paint15_linear_1_1614" x1="114.481" y1="0" x2="-0.0013364" y2="186.033" gradientUnits="userSpaceOnUse">
<stop stop-color="#FAFAFA"/>
<stop offset="1" stop-color="#5C5C5C" stop-opacity="0.4"/>
</linearGradient>
<linearGradient id="paint16_linear_1_1614" x1="114.481" y1="0" x2="-0.0013364" y2="186.033" gradientUnits="userSpaceOnUse">
<stop stop-opacity="0.5"/>
<stop offset="1" stop-opacity="0.14"/>
</linearGradient>
<linearGradient id="paint17_linear_1_1614" x1="196.986" y1="384.318" x2="28.5102" y2="488.507" gradientUnits="userSpaceOnUse">
<stop stop-color="#262626"/>
<stop offset="1" stop-color="#121212"/>
</linearGradient>
<linearGradient id="paint18_linear_1_1614" x1="-1.75176" y1="-2.8924e-07" x2="20.1998" y2="13.8675" gradientUnits="userSpaceOnUse">
<stop stop-color="#D6D3C2"/>
<stop offset="0.212761" stop-color="#B6B5AF"/>
<stop offset="0.548384" stop-color="#E2E0D4"/>
<stop offset="0.914316" stop-color="#9E9D94"/>
<stop offset="1" stop-color="#ADA785"/>
</linearGradient>
<linearGradient id="paint19_linear_1_1614" x1="18.4985" y1="-2.25862e-07" x2="-0.335913" y2="13.9152" gradientUnits="userSpaceOnUse">
<stop stop-color="#D6D3C2"/>
<stop offset="1" stop-color="#3D3A29" stop-opacity="0"/>
</linearGradient>
<linearGradient id="paint20_linear_1_1614" x1="28.046" y1="404.909" x2="8.2606" y2="397.993" gradientUnits="userSpaceOnUse">
<stop stop-color="#BAB8AB"/>
<stop offset="1" stop-color="#A3A08F"/>
</linearGradient>
<linearGradient id="paint21_linear_1_1614" x1="172.437" y1="383.462" x2="145.293" y2="388.604" gradientUnits="userSpaceOnUse">
<stop stop-color="#FBFBF9"/>
<stop offset="1" stop-color="#ADA785"/>
</linearGradient>
<linearGradient id="paint22_linear_1_1614" x1="60.223" y1="359.187" x2="81.921" y2="342.187" gradientUnits="userSpaceOnUse">
<stop stop-color="#ADA785"/>
<stop offset="1" stop-color="#D6D3C2"/>
</linearGradient>
<linearGradient id="paint23_linear_1_1614" x1="114.481" y1="0" x2="-0.0013364" y2="186.033" gradientUnits="userSpaceOnUse">
<stop stop-color="#FAFAFA"/>
<stop offset="1" stop-color="#5C5C5C" stop-opacity="0.4"/>
</linearGradient>
<linearGradient id="paint24_linear_1_1614" x1="114.481" y1="0" x2="-0.0013364" y2="186.033" gradientUnits="userSpaceOnUse">
<stop stop-opacity="0.5"/>
<stop offset="1" stop-opacity="0.14"/>
</linearGradient>
<linearGradient id="paint25_linear_1_1614" x1="447.275" y1="536.276" x2="278.799" y2="640.465" gradientUnits="userSpaceOnUse">
<stop stop-color="#262626"/>
<stop offset="1" stop-color="#121212"/>
</linearGradient>
<linearGradient id="paint26_linear_1_1614" x1="-1.75176" y1="-2.8924e-07" x2="20.1998" y2="13.8675" gradientUnits="userSpaceOnUse">
<stop stop-color="#D6D3C2"/>
<stop offset="0.212761" stop-color="#B6B5AF"/>
<stop offset="0.548384" stop-color="#E2E0D4"/>
<stop offset="0.914316" stop-color="#9E9D94"/>
<stop offset="1" stop-color="#ADA785"/>
</linearGradient>
<linearGradient id="paint27_linear_1_1614" x1="18.4985" y1="-2.25862e-07" x2="-0.335913" y2="13.9152" gradientUnits="userSpaceOnUse">
<stop stop-color="#D6D3C2"/>
<stop offset="1" stop-color="#3D3A29" stop-opacity="0"/>
</linearGradient>
<linearGradient id="paint28_linear_1_1614" x1="278.335" y1="556.866" x2="258.549" y2="549.951" gradientUnits="userSpaceOnUse">
<stop stop-color="#BAB8AB"/>
<stop offset="1" stop-color="#A3A08F"/>
</linearGradient>
<linearGradient id="paint29_linear_1_1614" x1="310.512" y1="511.145" x2="332.21" y2="494.145" gradientUnits="userSpaceOnUse">
<stop stop-color="#ADA785"/>
<stop offset="1" stop-color="#D6D3C2"/>
</linearGradient>
<linearGradient id="paint30_linear_1_1614" x1="114.481" y1="0" x2="-0.0013364" y2="186.033" gradientUnits="userSpaceOnUse">
<stop stop-color="#FAFAFA"/>
<stop offset="1" stop-color="#5C5C5C" stop-opacity="0.4"/>
</linearGradient>
<clipPath id="clip0_1_1614">
<rect width="114.481" height="186.032" rx="10.5331" transform="matrix(0.865874 0.500262 -0.865874 0.500262 101.729 474.186)" fill="white"/>
</clipPath>
<clipPath id="clip1_1_1614">
<path d="M87.1363 482.616C92.2441 479.665 94.7981 478.19 97.7431 477.637C100.334 477.151 103.124 477.151 105.715 477.637C108.66 478.19 111.214 479.665 116.321 482.616L186.676 523.264C191.784 526.215 194.338 527.691 195.295 529.392C196.137 530.889 196.137 532.501 195.295 533.998C194.338 535.699 191.784 537.175 186.676 540.126L76.8438 603.582L-22.6962 546.073L87.1363 482.616Z" fill="white"/>
</clipPath>
<clipPath id="clip2_1_1614">
<rect width="114.481" height="186.034" rx="10.5331" transform="matrix(0.865874 0.500262 -0.859249 0.511557 302.713 353.535)" fill="white"/>
</clipPath>
<clipPath id="clip3_1_1614">
<path d="M288.232 362.156C293.301 359.138 295.835 357.629 298.765 357.051C301.343 356.542 304.123 356.524 306.706 356.999C309.644 357.539 312.198 359.014 317.306 361.966L387.661 402.613C392.768 405.564 395.322 407.04 396.287 408.754C397.135 410.263 397.146 411.893 396.317 413.412C395.375 415.139 392.841 416.648 387.772 419.666L278.78 484.554L179.24 427.045L288.232 362.156Z" fill="white"/>
</clipPath>
<clipPath id="clip4_1_1614">
<rect width="114.481" height="186.034" rx="10.5331" transform="matrix(0.865874 0.500262 -0.859249 0.511557 97.4455 326.809)" fill="white"/>
</clipPath>
<clipPath id="clip5_1_1614">
<path d="M82.9646 335.43C88.0334 332.412 90.5678 330.903 93.4979 330.325C96.0752 329.816 98.855 329.798 101.439 330.273C104.376 330.813 106.93 332.288 112.038 335.24L182.393 375.887C187.501 378.838 190.055 380.314 191.019 382.028C191.868 383.536 191.878 385.167 191.05 386.686C190.108 388.413 187.573 389.922 182.505 392.939L73.5125 457.828L-26.0276 400.319L82.9646 335.43Z" fill="white"/>
</clipPath>
<clipPath id="clip6_1_1614">
<rect width="114.481" height="186.034" rx="10.5331" transform="matrix(0.865874 0.500262 -0.859249 0.511557 347.734 478.767)" fill="white"/>
</clipPath>
<clipPath id="clip7_1_1614">
<path d="M333.254 487.388C338.322 484.37 340.857 482.861 343.787 482.283C346.364 481.774 349.144 481.756 351.728 482.231C354.665 482.771 357.219 484.246 362.327 487.198L432.682 527.845C437.79 530.796 440.344 532.272 441.308 533.986C442.157 535.494 442.167 537.125 441.339 538.644C440.397 540.371 437.862 541.88 432.794 544.897L323.801 609.786L224.261 552.277L333.254 487.388Z" fill="white"/>
</clipPath>
</defs>
</svg>
