<svg width="386" height="562" viewBox="0 0 386 562" fill="none" xmlns="http://www.w3.org/2000/svg">
<mask id="path-1-inside-1_1_1612" fill="white">
<path fill-rule="evenodd" clip-rule="evenodd" d="M385.981 379.011L385.981 550C385.981 556.627 380.608 562 373.981 562H12.0182C5.39077 562 0.0181885 556.627 0.0181885 550V174.727C0.0181885 174.707 0.0182394 174.686 0.0183411 174.666V162.727H0V155.914C0 104.648 38.71 88.1337 85.5989 68.1297C121.131 52.9706 161.36 35.8078 193 0C224.64 35.8078 264.869 52.9706 300.401 68.1297C347.29 88.1337 386 104.648 386 155.914V162.727H385.981V379.011Z"/>
</mask>
<path fill-rule="evenodd" clip-rule="evenodd" d="M385.981 379.011L385.981 550C385.981 556.627 380.608 562 373.981 562H12.0182C5.39077 562 0.0181885 556.627 0.0181885 550V174.727C0.0181885 174.707 0.0182394 174.686 0.0183411 174.666V162.727H0V155.914C0 104.648 38.71 88.1337 85.5989 68.1297C121.131 52.9706 161.36 35.8078 193 0C224.64 35.8078 264.869 52.9706 300.401 68.1297C347.29 88.1337 386 104.648 386 155.914V162.727H385.981V379.011Z" fill="url(#paint0_linear_1_1612)"/>
<path d="M385.981 379.011H387.481H385.981ZM385.981 550H384.481H385.981ZM0.0183411 174.666L1.51834 174.673V174.666H0.0183411ZM0.0183411 162.727H1.51834V161.227H0.0183411V162.727ZM0 162.727H-1.5V164.227H0V162.727ZM85.5989 68.1297L85.0103 66.75L85.5989 68.1297ZM193 0L194.124 -0.993218L193 -2.26536L191.876 -0.993218L193 0ZM300.401 68.1297L300.99 66.75L300.401 68.1297ZM386 162.727V164.227H387.5V162.727H386ZM385.981 162.727V161.227H384.481V162.727H385.981ZM384.481 379.011L384.481 550H387.481L387.481 379.011H384.481ZM384.481 550C384.481 555.799 379.78 560.5 373.981 560.5V563.5C381.437 563.5 387.481 557.456 387.481 550H384.481ZM373.981 560.5H12.0182V563.5H373.981V560.5ZM12.0182 560.5C6.2192 560.5 1.51819 555.799 1.51819 550H-1.48181C-1.48181 557.456 4.56235 563.5 12.0182 563.5V560.5ZM1.51819 550V174.727H-1.48181V550H1.51819ZM1.51819 174.727C1.51819 174.709 1.51823 174.691 1.51832 174.673L-1.48164 174.658C-1.48175 174.681 -1.48181 174.704 -1.48181 174.727H1.51819ZM1.51834 174.666V162.727H-1.48166V174.666H1.51834ZM0.0183411 161.227H0V164.227H0.0183411V161.227ZM1.5 162.727V155.914H-1.5V162.727H1.5ZM1.5 155.914C1.5 130.751 10.961 114.217 26.1802 101.448C41.5132 88.5831 62.6815 79.5377 86.1875 69.5093L85.0103 66.75C61.6274 76.7257 39.9963 85.9397 24.252 99.1497C8.39403 112.455 -1.5 129.812 -1.5 155.914H1.5ZM86.1875 69.5093C121.691 54.3625 162.23 37.0885 194.124 0.993218L191.876 -0.993218C160.49 34.5271 120.571 51.5788 85.0103 66.75L86.1875 69.5093ZM191.876 0.993218C223.77 37.0885 264.309 54.3625 299.812 69.5093L300.99 66.75C265.429 51.5788 225.51 34.5271 194.124 -0.993218L191.876 0.993218ZM299.812 69.5093C323.319 79.5376 344.487 88.5831 359.82 101.448C375.039 114.217 384.5 130.751 384.5 155.914H387.5C387.5 129.812 377.606 112.455 361.748 99.1497C346.004 85.9397 324.373 76.7257 300.99 66.75L299.812 69.5093ZM384.5 155.914V162.727H387.5V155.914H384.5ZM386 161.227H385.981V164.227H386V161.227ZM384.481 162.727V379.011H387.481V162.727H384.481Z" fill="url(#paint1_linear_1_1612)" mask="url(#path-1-inside-1_1_1612)"/>
<path d="M147.825 163.904C151.713 163.904 154.833 162.848 157.185 160.736C159.585 158.624 161.097 156.032 161.721 152.96L163.017 153.176C162.249 157.16 160.641 160.544 158.193 163.328C155.745 166.112 151.737 167.504 146.169 167.504C139.785 167.504 134.841 165.416 131.337 161.24C127.833 157.064 126.081 151.232 126.081 143.744C126.081 139.136 126.897 135.08 128.529 131.576C130.209 128.024 132.537 125.288 135.513 123.368C138.537 121.4 142.065 120.416 146.097 120.416C151.953 120.416 156.177 122.144 158.769 125.6C161.361 129.056 162.657 133.352 162.657 138.488V139.928L155.745 139.136C156.369 137.072 156.681 135.104 156.681 133.232C156.681 130.064 155.745 127.568 153.873 125.744C152.001 123.872 149.505 122.936 146.385 122.936C141.873 122.936 138.225 124.664 135.441 128.12C132.657 131.528 131.265 136.736 131.265 143.744C131.265 148.064 131.961 151.736 133.353 154.76C134.745 157.784 136.665 160.064 139.113 161.6C141.609 163.136 144.513 163.904 147.825 163.904ZM189.291 167V156.992H189.003C188.283 159.968 187.083 162.464 185.403 164.48C183.723 166.496 181.323 167.504 178.203 167.504C175.419 167.504 173.235 166.616 171.651 164.84C170.067 163.016 169.275 160.16 169.275 156.272C169.275 154.4 169.467 152.48 169.851 150.512L190.875 148.496V149.72L174.459 152.384C174.171 153.584 174.027 155 174.027 156.632C174.027 159.176 174.483 161.12 175.395 162.464C176.355 163.808 177.843 164.48 179.859 164.48C182.067 164.48 183.867 163.616 185.259 161.888C186.699 160.16 187.707 157.976 188.283 155.336C188.907 152.696 189.219 149.912 189.219 146.984C189.219 143.72 188.643 141.104 187.491 139.136C186.339 137.168 184.275 136.184 181.299 136.184C178.995 136.184 177.243 136.76 176.043 137.912C174.891 139.064 174.315 140.432 174.315 142.016C174.315 142.736 174.411 143.36 174.603 143.888C174.795 144.416 175.059 144.776 175.395 144.968V145.256L170.427 145.76C170.091 144.848 169.923 143.888 169.923 142.88C169.923 140.384 170.883 138.248 172.803 136.472C174.771 134.696 177.723 133.808 181.659 133.808C185.163 133.808 187.779 134.576 189.507 136.112C191.283 137.648 192.411 139.52 192.891 141.728C193.419 143.888 193.683 146.408 193.683 149.288V161.744C193.683 163.328 194.067 164.432 194.835 165.056C195.603 165.68 196.563 165.992 197.715 165.992V167H193.035H189.291ZM210.666 161.744C210.666 163.328 211.026 164.432 211.746 165.056C212.514 165.68 213.498 165.992 214.698 165.992V167H210.018H206.634H201.882V165.992C203.034 165.992 203.994 165.68 204.762 165.056C205.578 164.432 205.986 163.328 205.986 161.744V139.712C205.986 138.08 205.578 136.976 204.762 136.4C203.994 135.776 203.034 135.464 201.882 135.464V134.456H206.634H210.666V161.744ZM210.882 146.048C211.314 142.976 212.346 140.216 213.978 137.768C215.61 135.272 217.794 134.024 220.53 134.024C221.73 134.024 222.81 134.24 223.77 134.672C224.73 135.104 225.426 135.656 225.858 136.328L223.914 141.872L223.482 141.728C223.578 140.624 223.242 139.712 222.474 138.992C221.706 138.224 220.602 137.84 219.162 137.84C216.666 137.84 214.626 139.352 213.042 142.376C211.458 145.352 210.666 150.344 210.666 157.352H209.586V146.048H210.882ZM251.294 126.392C251.294 124.76 250.886 123.656 250.07 123.08C249.302 122.456 248.342 122.144 247.19 122.144V121.136H251.942H255.974V161.744C255.974 163.328 256.358 164.432 257.126 165.056C257.894 165.68 258.854 165.992 260.006 165.992V167H255.326H251.294V126.392ZM253.31 142.736V158.144H251.366C250.838 160.736 249.71 162.944 247.982 164.768C246.302 166.592 243.926 167.504 240.854 167.504C237.206 167.504 234.278 166.256 232.07 163.76C229.91 161.216 228.83 156.872 228.83 150.728C228.83 144.536 229.91 140.168 232.07 137.624C234.278 135.08 237.206 133.808 240.854 133.808C243.974 133.808 246.398 134.672 248.126 136.4C249.854 138.128 250.934 140.24 251.366 142.736H253.31ZM242.006 165.128C243.59 165.128 245.078 164.624 246.47 163.616C247.91 162.608 249.062 161.048 249.926 158.936C250.838 156.776 251.294 154.04 251.294 150.728C251.294 147.368 250.838 144.608 249.926 142.448C249.062 140.24 247.91 138.656 246.47 137.696C245.078 136.688 243.59 136.184 242.006 136.184C239.318 136.184 237.302 137.384 235.958 139.784C234.614 142.136 233.942 145.784 233.942 150.728C233.942 155.624 234.59 159.248 235.886 161.6C237.23 163.952 239.27 165.128 242.006 165.128ZM96.0146 227.384C96.0146 229.064 96.4706 230.24 97.3826 230.912C98.2946 231.584 99.4466 231.92 100.839 231.92V233H95.2226H91.8386H86.1506V231.92C87.5426 231.92 88.6946 231.584 89.6066 230.912C90.5666 230.24 91.0466 229.064 91.0466 227.384V192.752C91.0466 191.024 90.5666 189.848 89.6066 189.224C88.6946 188.552 87.5426 188.216 86.1506 188.216V187.136H91.8386H95.2226H100.839V188.216C99.4466 188.216 98.2946 188.552 97.3826 189.224C96.4706 189.848 96.0146 191.024 96.0146 192.752V227.384ZM120.279 187.136H126.255V188.216C124.575 188.216 122.967 188.456 121.431 188.936C119.895 189.368 118.599 190.232 117.543 191.528L95.1506 219.32L93.2066 216.44L113.295 191.528C114.015 190.568 114.303 189.848 114.159 189.368C114.063 188.888 113.655 188.576 112.935 188.432C112.263 188.288 111.279 188.216 109.983 188.216V187.136H117.903H120.279ZM120.711 228.32C121.671 229.712 122.847 230.672 124.239 231.2C125.679 231.68 127.191 231.92 128.775 231.92V233H123.159H119.487H110.775V231.92C112.167 231.92 113.271 231.848 114.087 231.704C114.951 231.512 115.479 231.152 115.671 230.624C115.911 230.096 115.695 229.328 115.023 228.32L101.775 209.24L107.751 209.816L120.711 228.32ZM140.355 233.576C137.283 233.576 135.003 232.712 133.515 230.984C132.027 229.256 131.283 226.616 131.283 223.064V205.712C131.283 204.08 130.899 202.976 130.131 202.4C129.363 201.776 128.403 201.464 127.251 201.464V200.456H131.931H136.035V221.624C136.035 224.888 136.467 227.288 137.331 228.824C138.243 230.312 139.755 231.056 141.867 231.056C144.555 231.056 146.715 229.64 148.347 226.808C150.027 223.976 150.867 219.488 150.867 213.344H152.739V224.216H150.651C150.219 226.76 149.115 228.968 147.339 230.84C145.611 232.664 143.283 233.576 140.355 233.576ZM150.867 205.712C150.867 204.08 150.483 202.976 149.715 202.4C148.947 201.776 147.987 201.464 146.835 201.464V200.456H151.515H155.547V227.744C155.547 229.328 155.931 230.432 156.699 231.056C157.467 231.68 158.427 231.992 159.579 231.992V233H154.899H150.867V205.712ZM172.908 220.04H171.036V209.168H173.124C173.604 206.624 174.732 204.44 176.508 202.616C178.284 200.744 180.612 199.808 183.492 199.808C186.612 199.808 188.916 200.768 190.404 202.688C191.94 204.608 192.708 207.368 192.708 210.968V227.744C192.708 229.328 193.068 230.432 193.788 231.056C194.556 231.68 195.516 231.992 196.668 231.992V233H191.988H188.604H183.852V231.992C185.004 231.992 185.964 231.68 186.732 231.056C187.548 230.432 187.956 229.328 187.956 227.744V211.76C187.956 208.496 187.5 206.12 186.588 204.632C185.676 203.096 184.14 202.328 181.98 202.328C179.292 202.328 177.108 203.768 175.428 206.648C173.748 209.48 172.908 213.944 172.908 220.04ZM172.908 227.744C172.908 229.328 173.268 230.432 173.988 231.056C174.756 231.68 175.74 231.992 176.94 231.992V233H172.26H168.876H164.124V231.992C165.276 231.992 166.236 231.68 167.004 231.056C167.82 230.432 168.228 229.328 168.228 227.744V205.712C168.228 204.08 167.82 202.976 167.004 202.4C166.236 201.776 165.276 201.464 164.124 201.464V200.456H168.876H172.908V227.744ZM223.731 192.392C223.731 190.76 223.323 189.656 222.507 189.08C221.739 188.456 220.779 188.144 219.627 188.144V187.136H224.379H228.411V227.744C228.411 229.328 228.795 230.432 229.563 231.056C230.331 231.68 231.291 231.992 232.443 231.992V233H227.763H223.731V192.392ZM225.747 208.736V224.144H223.803C223.275 226.736 222.147 228.944 220.419 230.768C218.739 232.592 216.363 233.504 213.291 233.504C209.643 233.504 206.715 232.256 204.507 229.76C202.347 227.216 201.267 222.872 201.267 216.728C201.267 210.536 202.347 206.168 204.507 203.624C206.715 201.08 209.643 199.808 213.291 199.808C216.411 199.808 218.835 200.672 220.563 202.4C222.291 204.128 223.371 206.24 223.803 208.736H225.747ZM214.443 231.128C216.027 231.128 217.515 230.624 218.907 229.616C220.347 228.608 221.499 227.048 222.363 224.936C223.275 222.776 223.731 220.04 223.731 216.728C223.731 213.368 223.275 210.608 222.363 208.448C221.499 206.24 220.347 204.656 218.907 203.696C217.515 202.688 216.027 202.184 214.443 202.184C211.755 202.184 209.739 203.384 208.395 205.784C207.051 208.136 206.379 211.784 206.379 216.728C206.379 221.624 207.027 225.248 208.323 227.6C209.667 229.952 211.707 231.128 214.443 231.128ZM257.916 233V222.992H257.628C256.908 225.968 255.708 228.464 254.028 230.48C252.348 232.496 249.948 233.504 246.828 233.504C244.044 233.504 241.86 232.616 240.276 230.84C238.692 229.016 237.9 226.16 237.9 222.272C237.9 220.4 238.092 218.48 238.476 216.512L259.5 214.496V215.72L243.084 218.384C242.796 219.584 242.652 221 242.652 222.632C242.652 225.176 243.108 227.12 244.02 228.464C244.98 229.808 246.468 230.48 248.484 230.48C250.692 230.48 252.492 229.616 253.884 227.888C255.324 226.16 256.332 223.976 256.908 221.336C257.532 218.696 257.844 215.912 257.844 212.984C257.844 209.72 257.268 207.104 256.116 205.136C254.964 203.168 252.9 202.184 249.924 202.184C247.62 202.184 245.868 202.76 244.668 203.912C243.516 205.064 242.94 206.432 242.94 208.016C242.94 208.736 243.036 209.36 243.228 209.888C243.42 210.416 243.684 210.776 244.02 210.968V211.256L239.052 211.76C238.716 210.848 238.548 209.888 238.548 208.88C238.548 206.384 239.508 204.248 241.428 202.472C243.396 200.696 246.348 199.808 250.284 199.808C253.788 199.808 256.404 200.576 258.132 202.112C259.908 203.648 261.036 205.52 261.516 207.728C262.044 209.888 262.308 212.408 262.308 215.288V227.744C262.308 229.328 262.692 230.432 263.46 231.056C264.228 231.68 265.188 231.992 266.34 231.992V233H261.66H257.916ZM278.447 227.744C278.447 229.328 278.831 230.432 279.599 231.056C280.367 231.68 281.327 231.992 282.479 231.992V233H277.799H274.415H269.663V231.992C270.863 231.992 271.847 231.68 272.615 231.056C273.383 230.432 273.767 229.328 273.767 227.744V192.392C273.767 190.76 273.383 189.656 272.615 189.08C271.847 188.456 270.863 188.144 269.663 188.144V187.136H274.415H278.447V227.744ZM296.025 227.744C296.025 229.328 296.385 230.432 297.105 231.056C297.873 231.68 298.833 231.992 299.985 231.992V233H295.305H291.993H287.241V231.992C288.393 231.992 289.353 231.68 290.121 231.056C290.889 230.432 291.273 229.328 291.273 227.744V205.712C291.273 204.08 290.889 202.976 290.121 202.4C289.353 201.776 288.393 201.464 287.241 201.464V200.456H291.993H296.025V227.744ZM289.185 189.8L293.577 185.408L297.969 189.8L293.577 194.264L289.185 189.8Z" fill="white"/>
<mask id="mask0_1_1612" style="mask-type:alpha" maskUnits="userSpaceOnUse" x="0" y="0" width="386" height="561">
<path d="M385.145 162.431H385.164V155.631C385.164 104.458 346.538 87.9735 299.75 68.0058C264.295 52.8743 224.153 35.7427 192.582 0C161.011 35.7427 120.869 52.8743 85.4134 68.0058C38.6261 87.9735 0 104.458 0 155.631V162.431H0.0183029V174.404C0.0182826 174.413 0.0182724 174.422 0.0182724 174.431V548.978C0.0182724 555.606 5.39085 560.978 12.0183 560.978H373.145C379.772 560.978 385.145 555.606 385.145 548.978L385.145 162.431Z" fill="url(#paint2_linear_1_1612)"/>
</mask>
<g mask="url(#mask0_1_1612)">
<g filter="url(#filter0_i_1_1612)">
<ellipse cx="193.156" cy="681.871" rx="280.78" ry="280.976" fill="#191919"/>
</g>
<path d="M193.156 963.847C348.779 963.847 474.936 837.601 474.936 681.871C474.936 526.141 348.779 399.896 193.156 399.896C37.5329 399.896 -88.6235 526.141 -88.6235 681.871C-88.6235 837.601 37.5329 963.847 193.156 963.847Z" stroke="#FFE7D9" stroke-width="2"/>
<path d="M-137.675 779.165L193.156 340.988L523.987 779.165H-137.675Z" stroke="url(#paint3_linear_1_1612)" stroke-width="2"/>
<path d="M-25.0269 860.024L193.156 422.429L411.34 860.024H-25.0269Z" stroke="url(#paint4_linear_1_1612)" stroke-width="2"/>
<path d="M-25.0269 503.861L193.156 941.456L411.34 503.861H-25.0269Z" stroke="url(#paint5_linear_1_1612)" stroke-width="2"/>
<path d="M30.6879 423.261L193.156 712.555L355.624 423.261H30.6879Z" stroke="url(#paint6_linear_1_1612)" stroke-width="2"/>
<path d="M85.2994 723.186L193.156 500.233L301.012 723.186H85.2994Z" stroke="url(#paint7_linear_1_1612)" stroke-width="2"/>
</g>
<defs>
<filter id="filter0_i_1_1612" x="-89.6235" y="398.896" width="565.559" height="565.951" filterUnits="userSpaceOnUse" color-interpolation-filters="sRGB">
<feFlood flood-opacity="0" result="BackgroundImageFix"/>
<feBlend mode="normal" in="SourceGraphic" in2="BackgroundImageFix" result="shape"/>
<feColorMatrix in="SourceAlpha" type="matrix" values="0 0 0 0 0 0 0 0 0 0 0 0 0 0 0 0 0 0 127 0" result="hardAlpha"/>
<feOffset/>
<feGaussianBlur stdDeviation="45"/>
<feComposite in2="hardAlpha" operator="arithmetic" k2="-1" k3="1"/>
<feColorMatrix type="matrix" values="0 0 0 0 1 0 0 0 0 0.877308 0 0 0 0 0.824327 0 0 0 1 0"/>
<feBlend mode="normal" in2="shape" result="effect1_innerShadow_1_1612"/>
</filter>
<linearGradient id="paint0_linear_1_1612" x1="193" y1="0" x2="193" y2="562" gradientUnits="userSpaceOnUse">
<stop stop-color="#1A1A1A"/>
<stop offset="1" stop-color="#323232"/>
</linearGradient>
<linearGradient id="paint1_linear_1_1612" x1="193" y1="0" x2="193" y2="328.5" gradientUnits="userSpaceOnUse">
<stop stop-color="#E7CEC0"/>
<stop offset="1" stop-color="white" stop-opacity="0"/>
</linearGradient>
<linearGradient id="paint2_linear_1_1612" x1="192.582" y1="0" x2="192.582" y2="560.978" gradientUnits="userSpaceOnUse">
<stop stop-color="#1A1A1A"/>
<stop offset="1" stop-color="#323232"/>
</linearGradient>
<linearGradient id="paint3_linear_1_1612" x1="193.156" y1="339.329" x2="193.156" y2="927.11" gradientUnits="userSpaceOnUse">
<stop stop-color="#FFD1B0"/>
<stop offset="1" stop-color="#91674D"/>
</linearGradient>
<linearGradient id="paint4_linear_1_1612" x1="193.156" y1="420.187" x2="193.156" y2="1007.97" gradientUnits="userSpaceOnUse">
<stop stop-color="#FFD1B0"/>
<stop offset="1" stop-color="#91674D"/>
</linearGradient>
<linearGradient id="paint5_linear_1_1612" x1="193.156" y1="943.697" x2="193.156" y2="355.915" gradientUnits="userSpaceOnUse">
<stop stop-color="#FFD1B0"/>
<stop offset="1" stop-color="#91674D"/>
</linearGradient>
<linearGradient id="paint6_linear_1_1612" x1="193.156" y1="714.597" x2="193.156" y2="324.816" gradientUnits="userSpaceOnUse">
<stop stop-color="#FFD1B0"/>
<stop offset="1" stop-color="#91674D"/>
</linearGradient>
<linearGradient id="paint7_linear_1_1612" x1="193.156" y1="497.937" x2="193.156" y2="799.603" gradientUnits="userSpaceOnUse">
<stop stop-color="#FFD1B0"/>
<stop offset="1" stop-color="#91674D"/>
</linearGradient>
</defs>
</svg>
